<svg width="22" height="18" viewBox="0 0 22 18" fill="none" xmlns="http://www.w3.org/2000/svg">
<path fill-rule="evenodd" clip-rule="evenodd" d="M17.6 0H4.4C1.96995 0 0 1.96995 0 4.4V13.2C0 15.6301 1.96995 17.6 4.4 17.6H17.6C20.0301 17.6 22 15.6301 22 13.2V4.4C22 1.96995 20.0301 0 17.6 0ZM19.759 3.9755C19.5612 2.9636 18.6697 2.2 17.5999 2.2H4.3999C3.33009 2.2 2.43863 2.9636 2.24082 3.9755C4.87863 6.47175 7.78392 7.7 10.9999 7.7C14.2159 7.7 17.1212 6.47175 19.759 3.9755ZM19.8 6.83029C17.1391 8.86886 14.1972 9.90004 11 9.90004C7.80283 9.90004 4.86088 8.86886 2.2 6.83029V13.2C2.2 14.4151 3.18497 15.4 4.4 15.4H17.6C18.815 15.4 19.8 14.4151 19.8 13.2V6.83029Z" fill="#538697"/>
</svg>
