<svg width="21" height="21" viewBox="0 0 21 21" fill="none" xmlns="http://www.w3.org/2000/svg">
<path fill-rule="evenodd" clip-rule="evenodd" d="M0.895718 8.51258L7.41982 13.4057L12.3129 19.9298C13.0068 20.8549 14.3193 21.0424 15.2445 20.3486C15.6221 20.0653 15.893 19.6628 16.0131 19.2063L20.2402 3.14317C20.5345 2.02478 19.8665 0.879554 18.7481 0.585241C18.3988 0.493315 18.0316 0.493315 17.6823 0.585241L1.6192 4.81238C0.500809 5.10669 -0.167237 6.25191 0.127076 7.3703C0.247211 7.82681 0.518074 8.22934 0.895718 8.51258ZM13.9882 18.6733L9.55019 12.756L12.0491 10.2571C12.4579 9.84827 12.4579 9.18535 12.0491 8.77648C11.6402 8.36761 10.9773 8.36761 10.5684 8.77648L8.06953 11.2753L2.15221 6.83736L18.2153 2.61022L13.9882 18.6733Z" fill="#538697"/>
</svg>
