<svg width="18" height="17" viewBox="0 0 18 17" fill="none" xmlns="http://www.w3.org/2000/svg">
<path fill-rule="evenodd" clip-rule="evenodd" d="M7.24709 0C6.54293 0 5.97209 0.570837 5.97209 1.275V1.6454C5.68358 1.78875 5.40455 1.95019 5.13658 2.12865L4.81506 1.94301C4.20523 1.59093 3.42546 1.79987 3.07337 2.4097L0.948374 6.0903C0.596293 6.70013 0.805234 7.47991 1.41506 7.83199L1.73706 8.0179C1.7271 8.17792 1.72209 8.33867 1.72209 8.5C1.72209 8.63303 1.72879 8.79224 1.74207 8.97922L1.41506 9.16801C0.805234 9.52009 0.596293 10.2999 0.948374 10.9097L3.07337 14.5903C3.42546 15.2001 4.20523 15.4091 4.81506 15.057L5.13658 14.8714C5.40455 15.0498 5.68358 15.2113 5.97209 15.3546V15.725C5.97209 16.4292 6.54293 17 7.24709 17H11.4971C12.2013 17 12.7721 16.4292 12.7721 15.725V15.3546C13.0606 15.2113 13.3396 15.0498 13.6076 14.8714L13.9291 15.057C14.5389 15.4091 15.3187 15.2001 15.6708 14.5903L17.7958 10.9097C18.1479 10.2999 17.9389 9.52009 17.3291 9.16801L17.0071 8.9821C17.0171 8.82208 17.0221 8.66133 17.0221 8.5C17.0221 8.33867 17.0171 8.17792 17.0071 8.0179L17.3291 7.83199C17.9389 7.47991 18.1479 6.70013 17.7958 6.0903L15.6708 2.4097C15.3187 1.79987 14.5389 1.59093 13.9291 1.94301L13.6076 2.12865C13.3396 1.95019 13.0606 1.78875 12.7721 1.6454V1.275C12.7721 0.570837 12.2013 0 11.4971 0H7.24709ZM7.67216 2.76722V1.7H11.0722V2.76722L11.6032 2.98219C12.1161 3.1898 12.5973 3.46848 13.0332 3.80925L13.485 4.16246L14.4111 3.62776L16.1111 6.57224L15.1865 7.10607L15.2653 7.67295C15.3031 7.94518 15.3222 8.22126 15.3222 8.5C15.3222 8.77874 15.3031 9.05482 15.2653 9.32705L15.1865 9.89393L16.1111 10.4278L14.4111 13.3722L13.485 12.8375L13.0332 13.1908C12.5973 13.5315 12.1161 13.8102 11.6032 14.0178L11.0722 14.2328V15.3H7.67216V14.2328L7.1411 14.0178C6.6282 13.8102 6.14707 13.5315 5.71116 13.1908L5.25933 12.8375L4.33319 13.3722L2.63319 10.4278L3.53974 9.90436L3.48258 9.35587C3.44204 8.96689 3.42216 8.67817 3.42216 8.5C3.42216 8.22126 3.44127 7.94518 3.47908 7.67295L3.5578 7.10607L2.63319 6.57224L4.33319 3.62776L5.25933 4.16246L5.71116 3.80925C6.14707 3.46848 6.6282 3.1898 7.1411 2.98219L7.67216 2.76722ZM9.37218 11.9C7.49441 11.9 5.97218 10.3778 5.97218 8.5C5.97218 6.62223 7.49441 5.1 9.37218 5.1C11.2499 5.1 12.7722 6.62223 12.7722 8.5C12.7722 10.3778 11.2499 11.9 9.37218 11.9ZM11.0722 8.5C11.0722 9.43888 10.3111 10.2 9.37218 10.2C8.4333 10.2 7.67218 9.43888 7.67218 8.5C7.67218 7.56112 8.4333 6.8 9.37218 6.8C10.3111 6.8 11.0722 7.56112 11.0722 8.5Z" fill="#538697"/>
</svg>
