<svg width="22" height="22" viewBox="0 0 22 22" fill="none" xmlns="http://www.w3.org/2000/svg">
<path fill-rule="evenodd" clip-rule="evenodd" d="M10.5636 21.0336C4.78126 21.0336 0.09375 16.3461 0.09375 10.5638C0.09375 4.78144 4.78126 0.0939331 10.5636 0.0939331C16.3459 0.0939331 21.0334 4.78144 21.0334 10.5638C21.0334 16.3461 16.3459 21.0336 10.5636 21.0336ZM10.5639 18.9397C15.1897 18.9397 18.9397 15.1897 18.9397 10.5638C18.9397 5.93795 15.1897 2.18795 10.5639 2.18795C5.938 2.18795 2.18799 5.93795 2.18799 10.5638C2.18799 15.1897 5.938 18.9397 10.5639 18.9397ZM9.51694 11.1771L8.1633 9.82347C7.75442 9.41459 7.09151 9.41459 6.68264 9.82347C6.27377 10.2323 6.27377 10.8953 6.68264 11.3041L9.51694 14.1384L14.4452 9.21016C14.8541 8.80128 14.8541 8.13837 14.4452 7.7295C14.0363 7.32062 13.3734 7.32062 12.9645 7.7295L9.51694 11.1771Z" fill="#538697"/>
</svg>
