<svg width="11" height="12" viewBox="0 0 11 12" fill="none" xmlns="http://www.w3.org/2000/svg">
<path fill-rule="evenodd" clip-rule="evenodd" d="M0.6 12C0.931371 12 1.2 11.7314 1.2 11.4V1.2H9.6V11.4C9.6 11.7314 9.86863 12 10.2 12C10.5314 12 10.8 11.7314 10.8 11.4V1.2C10.8 0.537258 10.2627 0 9.6 0H1.2C0.537258 0 0 0.537258 0 1.2V11.4C0 11.7314 0.268629 12 0.6 12ZM3.6 11.4C3.6 11.7314 3.33137 12 3 12C2.66863 12 2.4 11.7314 2.4 11.4V10.2C2.4 9.86863 2.66863 9.6 3 9.6C3.33137 9.6 3.6 9.86863 3.6 10.2V11.4ZM5.4 12C5.73137 12 6 11.7314 6 11.4V10.2C6 9.86863 5.73137 9.6 5.4 9.6C5.06863 9.6 4.8 9.86863 4.8 10.2V11.4C4.8 11.7314 5.06863 12 5.4 12ZM7.8 12C8.13137 12 8.4 11.7314 8.4 11.4V10.2C8.4 9.86863 8.13137 9.6 7.8 9.6C7.46863 9.6 7.2 9.86863 7.2 10.2V11.4C7.2 11.7314 7.46863 12 7.8 12ZM4.8 4.8C4.46863 4.8 4.2 4.53137 4.2 4.2C4.2 3.86863 4.46863 3.6 4.8 3.6H7.8C8.13137 3.6 8.4 3.86863 8.4 4.2C8.4 4.53137 8.13137 4.8 7.8 4.8H4.8ZM2.4 4.2C2.4 4.53137 2.66863 4.8 3 4.8C3.33137 4.8 3.6 4.53137 3.6 4.2C3.6 3.86863 3.33137 3.6 3 3.6C2.66863 3.6 2.4 3.86863 2.4 4.2ZM4.8 7.2C4.46863 7.2 4.2 6.93137 4.2 6.6C4.2 6.26863 4.46863 6 4.8 6H7.8C8.13137 6 8.4 6.26863 8.4 6.6C8.4 6.93137 8.13137 7.2 7.8 7.2H4.8ZM2.4 6.6C2.4 6.93137 2.66863 7.2 3 7.2C3.33137 7.2 3.6 6.93137 3.6 6.6C3.6 6.26863 3.33137 6 3 6C2.66863 6 2.4 6.26863 2.4 6.6Z" fill="#919699"/>
</svg>
