<svg width="18" height="18" viewBox="0 0 18 18" fill="none" xmlns="http://www.w3.org/2000/svg">
<path fill-rule="evenodd" clip-rule="evenodd" d="M17.0135 10.9843C17.0137 10.9961 17.0137 11.008 17.0135 11.0198V14.4053C17.0135 16.2846 15.49 17.808 13.6108 17.808H3.40281C1.52357 17.808 0.000139758 16.2846 0.000139758 14.4053V11.0198C-4.65855e-05 11.008 -4.65855e-05 10.9961 0.000139754 10.9843L0.000139758 4.19734C0.000139758 2.3181 1.52357 0.794678 3.40281 0.794678H13.6108C15.49 0.794678 17.0135 2.3181 17.0135 4.19734V10.9843ZM15.3123 10.4664V4.19735C15.3123 3.25773 14.5506 2.49602 13.611 2.49602H3.40298C2.46336 2.49602 1.70165 3.25773 1.70165 4.19735V10.4664C3.73003 11.3902 5.99573 11.8533 8.50698 11.8533C11.0182 11.8533 13.2839 11.3902 15.3123 10.4664ZM8.50698 13.5547C10.9723 13.5547 13.2428 13.1423 15.3123 12.3159V14.4053C15.3123 15.345 14.5506 16.1067 13.611 16.1067H3.40298C2.46336 16.1067 1.70165 15.345 1.70165 14.4053V12.3159C3.7712 13.1423 6.04162 13.5547 8.50698 13.5547ZM4.25358 5.89869C3.78377 5.89869 3.40291 5.51783 3.40291 5.04802C3.40291 4.57821 3.78377 4.19735 4.25358 4.19735H12.7602C13.2301 4.19735 13.6109 4.57821 13.6109 5.04802C13.6109 5.51783 13.2301 5.89869 12.7602 5.89869H4.25358ZM3.40291 8.45067C3.40291 8.92048 3.78377 9.30134 4.25358 9.30134H12.7602C13.2301 9.30134 13.6109 8.92048 13.6109 8.45067C13.6109 7.98086 13.2301 7.60001 12.7602 7.60001H4.25358C3.78377 7.60001 3.40291 7.98086 3.40291 8.45067Z" fill="#538697"/>
</svg>
