<svg width="26" height="25" viewBox="0 0 26 25" fill="none" xmlns="http://www.w3.org/2000/svg">
<path fill-rule="evenodd" clip-rule="evenodd" d="M18 1.25V2.5H8V1.25C8 0.559644 7.44036 0 6.75 0C6.05964 0 5.5 0.559644 5.5 1.25V2.5C2.73858 2.5 0.5 4.73858 0.5 7.5V20C0.5 22.7614 2.73858 25 5.5 25H20.5C23.2614 25 25.5 22.7614 25.5 20V7.5C25.5 4.73858 23.2614 2.5 20.5 2.5V1.25C20.5 0.559644 19.9404 0 19.25 0C18.5596 0 18 0.559644 18 1.25ZM23 7.5C23 6.11929 21.8807 5 20.5 5H5.5C4.11929 5 3 6.11929 3 7.5H23ZM23 10H3V20C3 21.3807 4.11929 22.5 5.5 22.5H20.5C21.8807 22.5 23 21.3807 23 20V10ZM8 15C7.30964 15 6.75 14.4404 6.75 13.75C6.75 13.0596 7.30964 12.5 8 12.5C8.69036 12.5 9.25 13.0596 9.25 13.75C9.25 14.4404 8.69036 15 8 15ZM11.75 13.75C11.75 14.4404 12.3096 15 13 15C13.6904 15 14.25 14.4404 14.25 13.75C14.25 13.0596 13.6904 12.5 13 12.5C12.3096 12.5 11.75 13.0596 11.75 13.75ZM18 15C17.3096 15 16.75 14.4404 16.75 13.75C16.75 13.0596 17.3096 12.5 18 12.5C18.6904 12.5 19.25 13.0596 19.25 13.75C19.25 14.4404 18.6904 15 18 15ZM16.75 18.75C16.75 19.4404 17.3096 20 18 20C18.6904 20 19.25 19.4404 19.25 18.75C19.25 18.0596 18.6904 17.5 18 17.5C17.3096 17.5 16.75 18.0596 16.75 18.75ZM13 20C12.3096 20 11.75 19.4404 11.75 18.75C11.75 18.0596 12.3096 17.5 13 17.5C13.6904 17.5 14.25 18.0596 14.25 18.75C14.25 19.4404 13.6904 20 13 20ZM6.75 18.75C6.75 19.4404 7.30964 20 8 20C8.69036 20 9.25 19.4404 9.25 18.75C9.25 18.0596 8.69036 17.5 8 17.5C7.30964 17.5 6.75 18.0596 6.75 18.75Z" fill="#1C1C1C"/>
</svg>
