<svg width="17" height="17" viewBox="0 0 17 17" fill="none" xmlns="http://www.w3.org/2000/svg">
<path d="M8.5 15.2607L3.03122 14.0468C2.2534 13.8742 1.7 13.1852 1.7 12.3894V3.39586C1.7 2.45812 2.46112 1.69793 3.4 1.69793H5.95C6.41944 1.69793 6.8 1.31783 6.8 0.848965C6.8 0.380094 6.41944 0 5.95 0H3.4C1.52223 0 0 1.52038 0 3.39586V12.3894C0 13.981 1.10681 15.3591 2.66244 15.7043L8.5 17L14.3376 15.7043C15.8932 15.3591 17 13.981 17 12.3894V3.39586C17 1.52038 15.4778 0 13.6 0H11.05C9.17223 0 7.65 1.52038 7.65 3.39586V12.7345C7.65 13.2033 8.03056 13.5834 8.5 13.5834C8.96944 13.5834 9.35 13.2033 9.35 12.7345V3.39586C9.35 2.45812 10.1111 1.69793 11.05 1.69793H13.6C14.5389 1.69793 15.3 2.45812 15.3 3.39586V12.3894C15.3 13.1852 14.7466 13.8742 13.9688 14.0468L8.5 15.2607Z" fill="#538697"/>
</svg>
