<svg width="18" height="18" viewBox="0 0 18 18" fill="none" xmlns="http://www.w3.org/2000/svg">
<path fill-rule="evenodd" clip-rule="evenodd" d="M12.3332 1.49999V2.33332H5.6665V1.49999C5.6665 1.03975 5.29341 0.666656 4.83317 0.666656C4.37293 0.666656 3.99984 1.03975 3.99984 1.49999V2.33332C2.15889 2.33332 0.666504 3.82571 0.666504 5.66666V14C0.666504 15.8409 2.15889 17.3333 3.99984 17.3333H13.9998C15.8408 17.3333 17.3332 15.8409 17.3332 14V5.66666C17.3332 3.82571 15.8408 2.33332 13.9998 2.33332V1.49999C13.9998 1.03975 13.6267 0.666656 13.1665 0.666656C12.7063 0.666656 12.3332 1.03975 12.3332 1.49999ZM15.6667 5.66667C15.6667 4.74619 14.9205 4 14 4H3.99999C3.07952 4 2.33333 4.74619 2.33333 5.66667H15.6667ZM15.6667 7.33333H2.33333V14C2.33333 14.9205 3.07952 15.6667 3.99999 15.6667H14C14.9205 15.6667 15.6667 14.9205 15.6667 14V7.33333ZM5.66666 10.6667C5.20642 10.6667 4.83333 10.2936 4.83333 9.83333C4.83333 9.3731 5.20642 9 5.66666 9C6.1269 9 6.49999 9.3731 6.49999 9.83333C6.49999 10.2936 6.1269 10.6667 5.66666 10.6667ZM8.16666 9.83333C8.16666 10.2936 8.53975 10.6667 8.99999 10.6667C9.46023 10.6667 9.83332 10.2936 9.83332 9.83333C9.83332 9.3731 9.46023 9 8.99999 9C8.53975 9 8.16666 9.3731 8.16666 9.83333ZM12.3333 10.6667C11.8731 10.6667 11.5 10.2936 11.5 9.83333C11.5 9.3731 11.8731 9 12.3333 9C12.7936 9 13.1667 9.3731 13.1667 9.83333C13.1667 10.2936 12.7936 10.6667 12.3333 10.6667ZM11.5 13.1667C11.5 13.6269 11.8731 14 12.3333 14C12.7936 14 13.1667 13.6269 13.1667 13.1667C13.1667 12.7064 12.7936 12.3333 12.3333 12.3333C11.8731 12.3333 11.5 12.7064 11.5 13.1667ZM8.99999 14C8.53975 14 8.16666 13.6269 8.16666 13.1667C8.16666 12.7064 8.53975 12.3333 8.99999 12.3333C9.46023 12.3333 9.83332 12.7064 9.83332 13.1667C9.83332 13.6269 9.46023 14 8.99999 14ZM4.83333 13.1667C4.83333 13.6269 5.20642 14 5.66666 14C6.1269 14 6.49999 13.6269 6.49999 13.1667C6.49999 12.7064 6.1269 12.3333 5.66666 12.3333C5.20642 12.3333 4.83333 12.7064 4.83333 13.1667Z" fill="#78909C"/>
</svg>
