<svg width="18" height="18" viewBox="0 0 18 18" fill="none" xmlns="http://www.w3.org/2000/svg">
<path fill-rule="evenodd" clip-rule="evenodd" d="M17.0133 6.72002C17.0133 4.84078 15.4899 3.31735 13.6107 3.31735C13.6107 1.90792 12.4681 0.76535 11.0587 0.76535H2.12667C0.952141 0.76535 0 1.71749 0 2.89202C0 2.98038 0.00538953 3.06749 0.0158578 3.15303C0.00545262 3.2062 0 3.26114 0 3.31735V14.376C0 16.2553 1.52343 17.7787 3.40267 17.7787H13.6107C15.4899 17.7787 17.0133 16.2553 17.0133 14.376V6.72002ZM2.1266 3.31736H11.9093C11.9093 2.84754 11.5284 2.46669 11.0586 2.46669H2.1266C1.8917 2.46669 1.70127 2.65712 1.70127 2.89202C1.70127 3.12693 1.8917 3.31736 2.1266 3.31736ZM12.7599 13.5253H15.3119V14.376C15.3119 15.3156 14.5502 16.0773 13.6106 16.0773H3.4026C2.46298 16.0773 1.70127 15.3156 1.70127 14.376V4.97614C1.8387 5.00404 1.98094 5.01868 2.1266 5.01868H13.6106C14.5502 5.01868 15.3119 5.78039 15.3119 6.72001V8.42135H12.7599C11.3505 8.42135 10.2079 9.56392 10.2079 10.9733C10.2079 12.3828 11.3505 13.5253 12.7599 13.5253ZM15.3119 10.1227V11.824H12.7599C12.2901 11.824 11.9092 11.4432 11.9092 10.9734C11.9092 10.5035 12.2901 10.1227 12.7599 10.1227H15.3119Z" fill="#538697"/>
</svg>
