<svg width="8" height="7" viewBox="0 0 8 7" fill="none" xmlns="http://www.w3.org/2000/svg">
<path fill-rule="evenodd" clip-rule="evenodd" d="M7 0.799805C6.724 0.799805 6.474 0.911805 6.293 1.0928L5.293 2.0928L3 4.3858L1.707 3.0928C1.526 2.9118 1.276 2.7998 1 2.7998C0.448 2.7998 0 3.2478 0 3.7998C0 4.0758 0.112 4.3258 0.293 4.5068L2.293 6.5068C2.474 6.6878 2.724 6.7998 3 6.7998C3.276 6.7998 3.526 6.6878 3.707 6.5068L6.707 3.5068L7.707 2.5068C7.888 2.3258 8 2.0758 8 1.7998C8 1.2473 7.552 0.799805 7 0.799805Z" fill="white"/>
</svg>
