<svg width="18" height="18" viewBox="0 0 18 18" fill="none" xmlns="http://www.w3.org/2000/svg">
<path fill-rule="evenodd" clip-rule="evenodd" d="M9 18C4.02944 18 0 13.9706 0 9C0 4.02944 4.02944 0 9 0C13.9706 0 18 4.02944 18 9C18 13.9706 13.9706 18 9 18ZM9 16.2C12.9764 16.2 16.2 12.9764 16.2 9C16.2 5.02355 12.9764 1.8 9 1.8C5.02355 1.8 1.8 5.02355 1.8 9C1.8 12.9764 5.02355 16.2 9 16.2ZM8.1 9.52721L6.9364 8.3636C6.58492 8.01213 6.01508 8.01213 5.6636 8.3636C5.31213 8.71508 5.31213 9.28492 5.6636 9.6364L8.1 12.0728L12.3364 7.8364C12.6879 7.48492 12.6879 6.91508 12.3364 6.5636C11.9849 6.21213 11.4151 6.21213 11.0636 6.5636L8.1 9.52721Z" fill="#979797"/>
</svg>
