<svg width="16" height="15" viewBox="0 0 16 15" fill="none" xmlns="http://www.w3.org/2000/svg">
<path d="M4.36325 12.09L11.8135 6.67162C12.7883 5.96268 13.0301 4.61088 12.3615 3.60799C11.7048 2.6229 10.3738 2.35671 9.38876 3.01343C9.3601 3.03276 9.3601 3.03276 9.33187 3.0527L1.83705 8.40614C0.217188 9.56318 -0.192217 11.7969 0.912002 13.4532C1.97588 15.049 4.13198 15.4803 5.7278 14.4164C5.7709 14.3877 5.81335 14.358 5.85512 14.3273L13.3811 8.80831C15.6036 7.17845 16.0841 4.05546 14.4542 1.83291C14.3932 1.74975 14.3297 1.6685 14.2637 1.58928C12.8188 -0.144587 10.299 -0.510023 8.42113 0.741942L0.347767 6.12419C-0.0110267 6.36338 -0.10798 6.84815 0.131216 7.20694C0.370411 7.56574 0.855178 7.66269 1.21397 7.42349L9.28734 2.04124C10.5013 1.23196 12.13 1.46818 13.064 2.58897C13.1094 2.6434 13.153 2.69923 13.1949 2.75637C14.3148 4.28344 13.9847 6.4292 12.4576 7.54904L4.93166 13.0681C4.90867 13.0849 4.88531 13.1013 4.86159 13.1171C3.98336 13.7026 2.79679 13.4653 2.21131 12.587C1.57461 11.632 1.81067 10.344 2.7447 9.67684L10.2395 4.3234L10.255 4.31274C10.5225 4.1344 10.8839 4.20669 11.0622 4.47419C11.2662 4.78011 11.1924 5.19246 10.8951 5.40872L3.44478 10.8271C3.09604 11.0807 3.01893 11.5691 3.27256 11.9178C3.52619 12.2665 4.01451 12.3436 4.36325 12.09Z" fill="#538697"/>
</svg>
