<svg width="14" height="18" viewBox="0 0 14 18" fill="none" xmlns="http://www.w3.org/2000/svg">
<path fill-rule="evenodd" clip-rule="evenodd" d="M0.850667 5.17602C1.32048 5.17602 1.70133 4.79517 1.70133 4.32536V3.47469C1.70133 2.53507 2.46305 1.77335 3.40267 1.77335H10.208C11.1476 1.77335 11.9093 2.53507 11.9093 3.47469V13.6827C11.9093 14.6223 11.1476 15.384 10.208 15.384H3.40267C2.46305 15.384 1.70133 14.6223 1.70133 13.6827V12.832C1.70133 12.3622 1.32048 11.9814 0.850667 11.9814C0.380856 11.9814 0 12.3622 0 12.832V13.6827C0 15.5619 1.52343 17.0854 3.40267 17.0854H10.208C12.0872 17.0854 13.6107 15.5619 13.6107 13.6827V3.47469C13.6107 1.59545 12.0872 0.0720215 10.208 0.0720215H3.40267C1.52343 0.0720215 0 1.59545 0 3.47469V4.32536C0 4.79517 0.380856 5.17602 0.850667 5.17602ZM0 8.57869C0 9.0485 0.380856 9.42936 0.850667 9.42936H6.27959L6.04447 9.89959C5.83437 10.3198 6.00469 10.8308 6.4249 11.0409C6.84511 11.251 7.35609 11.0807 7.56619 10.6605L8.60707 8.57869L7.56619 6.49693C7.35609 6.07671 6.84511 5.90639 6.4249 6.1165C6.00469 6.3266 5.83437 6.83757 6.04447 7.25779L6.27959 7.72802H0.850667C0.380856 7.72802 0 8.10888 0 8.57869Z" fill="#538697"/>
</svg>
