<svg width="10" height="12" viewBox="0 0 10 12" fill="none" xmlns="http://www.w3.org/2000/svg">
<path fill-rule="evenodd" clip-rule="evenodd" d="M2.4 0H6.24853L9.6 3.35147V9.6C9.6 10.9255 8.52548 12 7.2 12H2.4C1.07452 12 0 10.9255 0 9.6V2.4C0 1.07452 1.07452 0 2.4 0ZM6.6 4.8H8.4V9.6C8.4 10.2627 7.86274 10.8 7.2 10.8H2.4C1.73726 10.8 1.2 10.2627 1.2 9.6V2.4C1.2 1.73726 1.73726 1.2 2.4 1.2H4.8V3C4.8 3.99411 5.60589 4.8 6.6 4.8ZM6 2.99998V1.44851L8.15147 3.59998H6.6C6.26863 3.59998 6 3.33135 6 2.99998ZM4.2 7.8C4.2 8.13137 4.46863 8.4 4.8 8.4C5.13137 8.4 5.4 8.13137 5.4 7.8C5.4 7.46863 5.13137 7.2 4.8 7.2C4.46863 7.2 4.2 7.46863 4.2 7.8ZM3 8.4C2.66863 8.4 2.4 8.13137 2.4 7.8C2.4 7.46863 2.66863 7.2 3 7.2C3.33137 7.2 3.6 7.46863 3.6 7.8C3.6 8.13137 3.33137 8.4 3 8.4ZM6 7.8C6 8.13137 6.26863 8.4 6.6 8.4C6.93137 8.4 7.2 8.13137 7.2 7.8C7.2 7.46863 6.93137 7.2 6.6 7.2C6.26863 7.2 6 7.46863 6 7.8Z" fill="#919699"/>
</svg>
