<svg width="14" height="18" viewBox="0 0 14 18" fill="none" xmlns="http://www.w3.org/2000/svg">
<path fill-rule="evenodd" clip-rule="evenodd" d="M13.1493 5.50134C12.6795 5.50134 12.2987 5.12048 12.2987 4.65067V3.80001C12.2987 2.86039 11.537 2.09867 10.5973 2.09867H3.792C2.85238 2.09867 2.09067 2.86039 2.09067 3.80001V14.008C2.09067 14.9476 2.85238 15.7093 3.792 15.7093H10.5973C11.537 15.7093 12.2987 14.9476 12.2987 14.008V13.1573C12.2987 12.6875 12.6795 12.3067 13.1493 12.3067C13.6191 12.3067 14 12.6875 14 13.1573V14.008C14 15.8872 12.4766 17.4107 10.5973 17.4107H3.792C1.91276 17.4107 0.389334 15.8872 0.389334 14.008V3.80001C0.389334 1.92076 1.91276 0.397339 3.792 0.397339H10.5973C12.4766 0.397339 14 1.92076 14 3.80001V4.65067C14 5.12048 13.6191 5.50134 13.1493 5.50134ZM14 8.90401C14 9.37382 13.6191 9.75467 13.1493 9.75467H7.72041L7.95553 10.2249C8.16563 10.6451 7.99531 11.1561 7.5751 11.3662C7.15489 11.5763 6.64391 11.406 6.43381 10.9858L5.39293 8.90401L6.43381 6.82224C6.64391 6.40203 7.15489 6.23171 7.5751 6.44181C7.99531 6.65192 8.16563 7.16289 7.95553 7.5831L7.72041 8.05334H13.1493C13.6191 8.05334 14 8.4342 14 8.90401Z" fill="#538697"/>
</svg>
