<svg width="18" height="18" viewBox="0 0 18 18" fill="none" xmlns="http://www.w3.org/2000/svg">
<path fill-rule="evenodd" clip-rule="evenodd" d="M6.80545 1.32C6.80545 1.78981 7.1863 2.17066 7.65611 2.17066H9.35745C9.82726 2.17066 10.2081 1.78981 10.2081 1.32C10.2081 0.850186 9.82726 0.46933 9.35745 0.46933H7.65611C7.1863 0.46933 6.80545 0.850186 6.80545 1.32ZM17.0136 8.11663L17.0135 8.1069V6.42399C17.0135 4.54475 15.49 3.02133 13.6108 3.02133H3.40281C1.52357 3.02133 0.000139758 4.54475 0.000139758 6.42399L0.000139754 8.1069C-4.65855e-05 8.11876 -4.65855e-05 8.13061 0.000139758 8.14244V14.08C0.000139758 15.9592 1.52357 17.4827 3.40281 17.4827H13.6108C15.49 17.4827 17.0135 15.9592 17.0135 14.08V8.14244L17.0136 8.11663ZM9.35765 10.6773L9.35749 10.6607C11.4966 10.576 13.483 10.169 15.3123 9.43851V14.08C15.3123 15.0196 14.5506 15.7813 13.611 15.7813H3.40298C2.46336 15.7813 1.70165 15.0196 1.70165 14.08V9.43851C3.53101 10.169 5.51732 10.576 7.65647 10.6607L7.65631 10.6773C7.65631 11.1471 8.03717 11.528 8.50698 11.528C8.97679 11.528 9.35765 11.1471 9.35765 10.6773ZM15.3123 7.58902V6.424C15.3123 5.48438 14.5506 4.72266 13.611 4.72266H3.40298C2.46336 4.72266 1.70165 5.48438 1.70165 6.424V7.58902C3.73003 8.51288 5.99573 8.976 8.50698 8.976C11.0182 8.976 13.2839 8.51288 15.3123 7.58902Z" fill="#538697"/>
</svg>
