<svg width="15" height="16" viewBox="0 0 15 16" fill="none" xmlns="http://www.w3.org/2000/svg">
<path d="M7.5 6.67417L13.3996 0.774587C13.7657 0.408471 14.3593 0.408471 14.7254 0.774587C15.0915 1.1407 15.0915 1.7343 14.7254 2.10041L8.82582 8L14.7254 13.8996C15.0915 14.2657 15.0915 14.8593 14.7254 15.2254C14.3593 15.5915 13.7657 15.5915 13.3996 15.2254L7.5 9.32582L1.60041 15.2254C1.2343 15.5915 0.640704 15.5915 0.274587 15.2254C-0.0915291 14.8593 -0.0915291 14.2657 0.274587 13.8996L6.17417 8L0.274587 2.10041C-0.0915291 1.7343 -0.0915291 1.1407 0.274587 0.774587C0.640704 0.408471 1.2343 0.408471 1.60041 0.774587L7.5 6.67417Z" fill="#EA5455"/>
</svg>
