<svg width="2" height="9" viewBox="0 0 2 9" fill="none" xmlns="http://www.w3.org/2000/svg">
<path fill-rule="evenodd" clip-rule="evenodd" d="M1.00005 5.49991C0.4478 5.49991 0.000108617 5.05222 0.000108641 4.49996C0.000108666 3.94771 0.4478 3.50002 1.00005 3.50002C1.55231 3.50002 2 3.94771 2 4.49996C2 5.05222 1.55231 5.49991 1.00005 5.49991ZM1.00005 8.99939C0.4478 8.99939 0.000108703 8.5517 0.000108727 7.99945C0.000108751 7.44719 0.4478 6.9995 1.00005 6.9995C1.55231 6.9995 2 7.44719 2 7.99945C2 8.5517 1.55231 8.99939 1.00005 8.99939ZM-0.000146194 0.999946C-0.000146218 1.5522 0.447545 1.99989 0.999799 1.99989C1.55205 1.99989 1.99975 1.5522 1.99975 0.999946C1.99975 0.447691 1.55205 -1.95803e-08 0.999799 -4.37202e-08C0.447545 -6.786e-08 -0.00014617 0.447691 -0.000146194 0.999946Z" fill="#000"/>
<path fill-rule="evenodd" clip-rule="evenodd" d="M1.00005 5.49991C0.4478 5.49991 0.000108617 5.05222 0.000108641 4.49996C0.000108666 3.94771 0.4478 3.50002 1.00005 3.50002C1.55231 3.50002 2 3.94771 2 4.49996C2 5.05222 1.55231 5.49991 1.00005 5.49991ZM1.00005 8.99939C0.4478 8.99939 0.000108703 8.5517 0.000108727 7.99945C0.000108751 7.44719 0.4478 6.9995 1.00005 6.9995C1.55231 6.9995 2 7.44719 2 7.99945C2 8.5517 1.55231 8.99939 1.00005 8.99939ZM-0.000146194 0.999946C-0.000146218 1.5522 0.447545 1.99989 0.999799 1.99989C1.55205 1.99989 1.99975 1.5522 1.99975 0.999946C1.99975 0.447691 1.55205 -1.95803e-08 0.999799 -4.37202e-08C0.447545 -6.786e-08 -0.00014617 0.447691 -0.000146194 0.999946Z" fill="#000"/>
</svg>
