<svg width="15" height="15" viewBox="0 0 15 15" fill="none" xmlns="http://www.w3.org/2000/svg">
<path fill-rule="evenodd" clip-rule="evenodd" d="M15 7.5C15 11.6421 11.6421 15 7.5 15C3.35786 15 0 11.6421 0 7.5C0 3.35786 3.35786 0 7.5 0C11.6421 0 15 3.35786 15 7.5ZM13.5 7.5C13.5 4.18629 10.8137 1.5 7.5 1.5C4.18629 1.5 1.5 4.18629 1.5 7.5C1.5 10.8137 4.18629 13.5 7.5 13.5C10.8137 13.5 13.5 10.8137 13.5 7.5ZM9.26986 6.17383L7.5 7.64872L5.73013 6.17383C5.41193 5.90866 4.939 5.95165 4.67383 6.26986C4.40866 6.58807 4.45165 7.06099 4.76986 7.32617L7.5 9.60128L10.2301 7.32617C10.5483 7.06099 10.5913 6.58807 10.3262 6.26986C10.061 5.95165 9.58807 5.90866 9.26986 6.17383Z" fill="#538697"/>
</svg>
