<svg width="12" height="12" viewBox="0 0 12 12" fill="none" xmlns="http://www.w3.org/2000/svg">
<path fill-rule="evenodd" clip-rule="evenodd" d="M11.0284 9.54924V4.28882L11.6411 3.67614C12.1196 3.1976 12.1196 2.42173 11.6411 1.94319L10.0568 0.358905C9.57827 -0.119635 8.8024 -0.119635 8.32386 0.358905L3.67614 5.00663V7.64991C3.67614 8.02212 3.97788 8.32386 4.35009 8.32386H6.99337L9.80303 5.5142V9.54924C9.80303 10.226 9.25441 10.7746 8.57765 10.7746H2.45076C1.774 10.7746 1.22538 10.226 1.22538 9.54924V3.42235C1.22538 2.74559 1.774 2.19697 2.45076 2.19697H4.28882C4.6272 2.19697 4.90151 1.92266 4.90151 1.58428C4.90151 1.2459 4.6272 0.971594 4.28882 0.971594H2.45076C1.09724 0.971594 0 2.06884 0 3.42235V9.54924C0 10.9028 1.09724 12 2.45076 12H8.57765C9.93116 12 11.0284 10.9028 11.0284 9.54924ZM10.7745 2.80967L6.48565 7.09849H4.90137V5.51421L9.19019 1.22538L10.7745 2.80967Z" fill="#919699"/>
</svg>
