<svg width="18" height="15" viewBox="0 0 18 15" fill="none" xmlns="http://www.w3.org/2000/svg">
<path fill-rule="evenodd" clip-rule="evenodd" d="M14.4 0H3.6C1.61177 0 0 1.61177 0 3.6V10.8C0 12.7882 1.61177 14.4 3.6 14.4H14.4C16.3882 14.4 18 12.7882 18 10.8V3.6C18 1.61177 16.3882 0 14.4 0ZM16.1667 3.25265C16.0048 2.42474 15.2754 1.79997 14.4001 1.79997H3.60014C2.72484 1.79997 1.99546 2.42474 1.83362 3.25265C3.99183 5.29504 6.36888 6.29997 9.00014 6.29997C11.6314 6.29997 14.0084 5.29504 16.1667 3.25265ZM16.2007 5.58847C14.0236 7.25639 11.6165 8.10009 9.00066 8.10009C6.38479 8.10009 3.97774 7.25639 1.80066 5.58847V10.8001C1.80066 11.7942 2.60655 12.6001 3.60066 12.6001H14.4007C15.3948 12.6001 16.2007 11.7942 16.2007 10.8001V5.58847Z" fill="#538697"/>
</svg>
