<svg width="16" height="18" viewBox="0 0 16 18" fill="none" xmlns="http://www.w3.org/2000/svg">
<path fill-rule="evenodd" clip-rule="evenodd" d="M8.48213 0.632771L14.3865 3.91298C15.2079 4.3693 15.5038 5.40507 15.0475 6.22645C14.8932 6.50418 14.6642 6.73315 14.3865 6.88744L8.48213 10.1676C7.96829 10.4531 7.34349 10.4531 6.82965 10.1676L0.925283 6.88744C0.103907 6.43112 -0.192029 5.39534 0.264291 4.57397C0.418583 4.29624 0.647557 4.06727 0.925283 3.91298L6.82965 0.632771C7.34349 0.347304 7.96829 0.347304 8.48213 0.632771ZM0.129417 8.35203C-0.119582 8.75042 0.00152983 9.27524 0.399928 9.52424L6.75441 13.4958C7.3061 13.8406 8.00613 13.8406 8.55782 13.4958L14.9123 9.52424C15.3107 9.27524 15.4318 8.75042 15.1828 8.35203C14.9338 7.95363 14.409 7.83251 14.0106 8.08151L7.65611 12.0531L1.30163 8.08151C0.903235 7.83251 0.378416 7.95363 0.129417 8.35203ZM0.129417 11.7547C-0.119582 12.1531 0.00152983 12.6779 0.399928 12.9269L6.75441 16.8985C7.3061 17.2433 8.00613 17.2433 8.55782 16.8985L14.9123 12.9269C15.3107 12.6779 15.4318 12.1531 15.1828 11.7547C14.9338 11.3563 14.409 11.2352 14.0106 11.4842L7.65611 15.4557L1.30163 11.4842C0.903235 11.2352 0.378416 11.3563 0.129417 11.7547ZM1.75191 5.40021L7.65628 2.12001L13.5606 5.40021L7.65628 8.68042L1.75191 5.40021Z" fill="#538697"/>
</svg>
