<svg width="20" height="14" viewBox="0 0 20 14" fill="none" xmlns="http://www.w3.org/2000/svg">
<path d="M19.8729 6.6106C19.6942 6.36618 15.4371 0.625977 9.9999 0.625977C4.56274 0.625977 0.305391 6.36619 0.126914 6.61037C-0.0423048 6.84224 -0.0423048 7.15673 0.126914 7.38861C0.305391 7.63302 4.56274 13.3732 9.9999 13.3732C15.4371 13.3732 19.6942 7.63299 19.8729 7.3888C20.0423 7.15697 20.0423 6.84224 19.8729 6.6106ZM9.9999 12.0546C5.99486 12.0546 2.52606 8.24467 1.49922 6.99916C2.52473 5.75255 5.98626 1.94465 9.9999 1.94465C14.0048 1.94465 17.4733 5.75388 18.5006 7.00005C17.4751 8.24662 14.0135 12.0546 9.9999 12.0546Z" fill="#979797"/>
<path d="M10.0001 3.04417C7.81876 3.04417 6.04403 4.8189 6.04403 7.00023C6.04403 9.18156 7.81876 10.9563 10.0001 10.9563C12.1814 10.9563 13.9562 9.18156 13.9562 7.00023C13.9562 4.8189 12.1814 3.04417 10.0001 3.04417ZM10.0001 9.63758C8.54579 9.63758 7.36274 8.45449 7.36274 7.00023C7.36274 5.54597 8.54583 4.36288 10.0001 4.36288C11.4544 4.36288 12.6374 5.54597 12.6374 7.00023C12.6374 8.45449 11.4544 9.63758 10.0001 9.63758Z" fill="#979797"/>
</svg>
