<svg width="18" height="18" viewBox="0 0 18 18" fill="none" xmlns="http://www.w3.org/2000/svg">
<path fill-rule="evenodd" clip-rule="evenodd" d="M8.50667 18C3.80856 18 0 14.1914 0 9.49333C0 4.79523 3.80856 0.986664 8.50667 0.986664C13.2048 0.986664 17.0133 4.79523 17.0133 9.49333C17.0133 14.1914 13.2048 18 8.50667 18ZM8.5066 16.2987C12.2651 16.2987 15.3119 13.2518 15.3119 9.49333C15.3119 5.73485 12.2651 2.688 8.5066 2.688C4.74812 2.688 1.70127 5.73485 1.70127 9.49333C1.70127 13.2518 4.74812 16.2987 8.5066 16.2987ZM8.50681 8.21733C8.50681 8.004 8.6025 7.77436 8.79386 7.52843L8.79389 7.52845C8.84358 7.46459 8.87056 7.38599 8.87056 7.30507C8.87056 7.10418 8.7077 6.94133 8.50681 6.94133C7.09738 6.94133 5.95481 8.0839 5.95481 9.49333C5.95481 10.9028 7.09738 12.0453 8.50681 12.0453C9.91624 12.0453 11.0588 10.9028 11.0588 9.49333C11.0588 9.41242 11.0318 9.33381 10.9821 9.26995C10.8588 9.11141 10.6302 9.08289 10.4717 9.20625L10.4717 9.20628C10.2258 9.39765 9.99615 9.49333 9.78281 9.49333C9.0781 9.49333 8.50681 8.92204 8.50681 8.21733Z" fill="#538697"/>
</svg>
