<svg width="9" height="12" viewBox="0 0 9 12" fill="none" xmlns="http://www.w3.org/2000/svg">
<path fill-rule="evenodd" clip-rule="evenodd" d="M2.25 0H5.858L9 3.35147V9.6C9 10.9255 7.99264 12 6.75 12H2.25C1.00736 12 0 10.9255 0 9.6V2.4C0 1.07452 1.00736 0 2.25 0ZM6.18768 4.79995H7.87518V9.59995C7.87518 10.2627 7.3715 10.8 6.75018 10.8H2.25018C1.62886 10.8 1.12518 10.2627 1.12518 9.59995V2.39995C1.12518 1.73721 1.62886 1.19995 2.25018 1.19995H4.50018V2.99995C4.50018 3.99406 5.2557 4.79995 6.18768 4.79995ZM5.625 2.99996V1.44849L7.642 3.59996H6.1875C5.87684 3.59996 5.625 3.33133 5.625 2.99996ZM3.93768 7.79995C3.93768 8.13132 4.18952 8.39995 4.50018 8.39995C4.81084 8.39995 5.06268 8.13132 5.06268 7.79995C5.06268 7.46858 4.81084 7.19995 4.50018 7.19995C4.18952 7.19995 3.93768 7.46858 3.93768 7.79995ZM2.81241 8.39995C2.50175 8.39995 2.24991 8.13132 2.24991 7.79995C2.24991 7.46858 2.50175 7.19995 2.81241 7.19995C3.12307 7.19995 3.37491 7.46858 3.37491 7.79995C3.37491 8.13132 3.12307 8.39995 2.81241 8.39995ZM5.625 7.79995C5.625 8.13132 5.87684 8.39995 6.1875 8.39995C6.49816 8.39995 6.75 8.13132 6.75 7.79995C6.75 7.46858 6.49816 7.19995 6.1875 7.19995C5.87684 7.19995 5.625 7.46858 5.625 7.79995Z" fill="#C6CACC"/>
</svg>
