<svg width="17" height="16" viewBox="0 0 17 16" fill="none" xmlns="http://www.w3.org/2000/svg">
<path d="M12.2832 8.8H9.0832V12H7.4832V8.8H4.2832V7.2H7.4832V4H9.0832V7.2H12.2832V8.8ZM8.2832 0C7.23263 0 6.19234 0.206926 5.22174 0.608964C4.25113 1.011 3.36922 1.60028 2.62635 2.34315C1.12606 3.84344 0.283203 5.87827 0.283203 8C0.283203 10.1217 1.12606 12.1566 2.62635 13.6569C3.36922 14.3997 4.25113 14.989 5.22174 15.391C6.19234 15.7931 7.23263 16 8.2832 16C10.4049 16 12.4398 15.1571 13.9401 13.6569C15.4403 12.1566 16.2832 10.1217 16.2832 8C16.2832 6.94943 16.0763 5.90914 15.6742 4.93853C15.2722 3.96793 14.6829 3.08601 13.9401 2.34315C13.1972 1.60028 12.3153 1.011 11.3447 0.608964C10.3741 0.206926 9.33378 0 8.2832 0Z" fill="white"/>
</svg>
