<svg width="17" height="16" viewBox="0 0 17 16" fill="none" xmlns="http://www.w3.org/2000/svg">
<path d="M12.2837 8.8H9.08369V12H7.48369V8.8H4.28369V7.2H7.48369V4H9.08369V7.2H12.2837V8.8ZM8.28369 0C7.23312 0 6.19283 0.206926 5.22222 0.608964C4.25162 1.011 3.36971 1.60028 2.62684 2.34315C1.12655 3.84344 0.283691 5.87827 0.283691 8C0.283691 10.1217 1.12655 12.1566 2.62684 13.6569C3.36971 14.3997 4.25162 14.989 5.22222 15.391C6.19283 15.7931 7.23312 16 8.28369 16C10.4054 16 12.4403 15.1571 13.9405 13.6569C15.4408 12.1566 16.2837 10.1217 16.2837 8C16.2837 6.94943 16.0768 5.90914 15.6747 4.93853C15.2727 3.96793 14.6834 3.08601 13.9405 2.34315C13.1977 1.60028 12.3158 1.011 11.3452 0.608964C10.3746 0.206926 9.33427 0 8.28369 0V0Z" fill="#538697"/>
</svg>
