<svg width="16" height="18" viewBox="0 0 16 18" fill="none" xmlns="http://www.w3.org/2000/svg">
<path fill-rule="evenodd" clip-rule="evenodd" d="M8.53333 17.6L8 18L7.46667 17.6C2.51667 13.8875 0 10.7417 0 8C0 3.64673 3.34283 0 8 0C12.6572 0 16 3.64673 16 8C16 10.7417 13.4833 13.8875 8.53333 17.6ZM1.77778 8C1.77778 9.91901 3.82728 12.5577 8 15.7724C12.1727 12.5577 14.2222 9.91901 14.2222 8C14.2222 4.5957 11.6391 1.77778 8 1.77778C4.36087 1.77778 1.77778 4.5957 1.77778 8ZM6.22222 8C6.22222 8.98184 7.01816 9.77778 8 9.77778C8.98184 9.77778 9.77778 8.98184 9.77778 8C9.77778 7.01816 8.98184 6.22222 8 6.22222C7.01816 6.22222 6.22222 7.01816 6.22222 8Z" fill="#538697"/>
</svg>
