<svg width="15" height="16" viewBox="0 0 15 16" fill="none" xmlns="http://www.w3.org/2000/svg">
<path fill-rule="evenodd" clip-rule="evenodd" d="M12 5C13.6569 5 15 6.34315 15 8V12.5C15 14.1569 13.6569 15.5 12 15.5H3C1.34315 15.5 0 14.1569 0 12.5V8C0 6.34315 1.34315 5 3 5V2C3 1.17157 3.67157 0.5 4.5 0.5H10.5C11.3284 0.5 12 1.17157 12 2V5ZM12 6.5V8C12 8.82843 11.3284 9.5 10.5 9.5H4.5C3.67157 9.5 3 8.82843 3 8V6.5C2.17157 6.5 1.5 7.17157 1.5 8V12.5C1.5 13.3284 2.17157 14 3 14H12C12.8284 14 13.5 13.3284 13.5 12.5V8C13.5 7.17157 12.8284 6.5 12 6.5ZM4.5 8V2H10.5V8H4.5ZM3.75 12.5C3.33579 12.5 3 12.1642 3 11.75C3 11.3358 3.33579 11 3.75 11C4.16421 11 4.5 11.3358 4.5 11.75C4.5 12.1642 4.16421 12.5 3.75 12.5ZM12 11.75C12 11.3358 11.6642 11 11.25 11H9.75C9.33579 11 9 11.3358 9 11.75C9 12.1642 9.33579 12.5 9.75 12.5H11.25C11.6642 12.5 12 12.1642 12 11.75Z" fill="#538697"/>
</svg>
