<svg width="18" height="18" viewBox="0 0 18 18" fill="none" xmlns="http://www.w3.org/2000/svg">
<path fill-rule="evenodd" clip-rule="evenodd" d="M0 8.79735C0 9.13797 0.200199 9.43183 0.489349 9.56769C1.69817 10.1628 4.05463 10.4556 7.656 10.4942V14.752C7.656 15.2218 7.27514 15.6027 6.80533 15.6027C6.33552 15.6027 5.95467 15.2218 5.95467 14.752V13.9013C5.95467 13.4315 5.57381 13.0507 5.104 13.0507C4.63419 13.0507 4.25333 13.4315 4.25333 13.9013V14.752C4.25333 16.1614 5.3959 17.304 6.80533 17.304C8.21476 17.304 9.35733 16.1614 9.35733 14.752V10.4942C12.9587 10.4556 15.3152 10.1628 16.524 9.56769C16.8131 9.43183 17.0133 9.13797 17.0133 8.79735C17.0133 5.03766 13.538 1.60069 9.3563 1.18368C9.35699 1.16966 9.35733 1.15554 9.35733 1.14135C9.35733 0.671536 8.97648 0.29068 8.50667 0.29068C8.03686 0.29068 7.656 0.671536 7.656 1.14135C7.656 1.15554 7.65635 1.16966 7.65704 1.18368C3.47536 1.60069 0 5.03766 0 8.79735ZM8.50656 8.79734C5.21716 8.79734 2.93488 8.59581 1.73744 8.23135C2.09751 5.40599 5.09338 2.84268 8.50656 2.84268C11.9197 2.84268 14.9156 5.40599 15.2757 8.23135C14.0782 8.59581 11.796 8.79734 8.50656 8.79734Z" fill="#538697"/>
</svg>
