<svg width="18" height="18" viewBox="0 0 18 18" fill="none" xmlns="http://www.w3.org/2000/svg">
<path fill-rule="evenodd" clip-rule="evenodd" d="M3.40267 0H13.6107C15.4899 0 17.0133 1.52343 17.0133 3.40267V13.6107C17.0133 15.4899 15.4899 17.0133 13.6107 17.0133H3.40267C1.52343 17.0133 0 15.4899 0 13.6107V3.40267C0 1.52343 1.52343 0 3.40267 0ZM3.4026 1.70134C2.46298 1.70134 1.70127 2.46305 1.70127 3.40267V13.6107C1.70127 14.5503 2.46298 15.312 3.4026 15.312H13.6106C14.5502 15.312 15.3119 14.5503 15.3119 13.6107V3.40267C15.3119 2.46305 14.5502 1.70134 13.6106 1.70134H3.4026ZM4.25317 5.104C4.25317 5.57381 4.63402 5.95467 5.10383 5.95467H9.35717C9.82698 5.95467 10.2078 5.57381 10.2078 5.104C10.2078 4.63419 9.82698 4.25333 9.35717 4.25333H5.10383C4.63402 4.25333 4.25317 4.63419 4.25317 5.104ZM5.10383 12.76C4.63402 12.76 4.25317 12.3791 4.25317 11.9093C4.25317 11.4395 4.63402 11.0587 5.10383 11.0587H7.65583C8.12564 11.0587 8.5065 11.4395 8.5065 11.9093C8.5065 12.3791 8.12564 12.76 7.65583 12.76H5.10383ZM4.25317 8.50668C4.25317 8.97649 4.63402 9.35734 5.10383 9.35734H11.9092C12.379 9.35734 12.7598 8.97649 12.7598 8.50668C12.7598 8.03687 12.379 7.65601 11.9092 7.65601H5.10383C4.63402 7.65601 4.25317 8.03687 4.25317 8.50668Z" fill="#538697"/>
</svg>
