<svg width="15" height="15" viewBox="0 0 15 15" fill="none" xmlns="http://www.w3.org/2000/svg">
<path fill-rule="evenodd" clip-rule="evenodd" d="M15 7.5C15 5.84315 13.6569 4.5 12 4.5V1.5C12 0.671573 11.3284 0 10.5 0H4.5C3.67157 0 3 0.671573 3 1.5V4.5C1.34315 4.5 0 5.84315 0 7.5V12C0 13.6569 1.34315 15 3 15H12C13.6569 15 15 13.6569 15 12V7.5ZM12 7.5V6C12.8284 6 13.5 6.67157 13.5 7.5V12C13.5 12.8284 12.8284 13.5 12 13.5H3C2.17157 13.5 1.5 12.8284 1.5 12V7.5C1.5 6.67157 2.17157 6 3 6V7.5C3 8.32843 3.67157 9 4.5 9H10.5C11.3284 9 12 8.32843 12 7.5ZM3.75 12C3.33579 12 3 11.6642 3 11.25C3 10.8358 3.33579 10.5 3.75 10.5C4.16421 10.5 4.5 10.8358 4.5 11.25C4.5 11.6642 4.16421 12 3.75 12ZM12 11.25C12 10.8358 11.6642 10.5 11.25 10.5H9.75C9.33579 10.5 9 10.8358 9 11.25C9 11.6642 9.33579 12 9.75 12H11.25C11.6642 12 12 11.6642 12 11.25Z" fill="#538697"/>
</svg>
