<svg width="15" height="15" viewBox="0 0 15 15" fill="none" xmlns="http://www.w3.org/2000/svg">
<path fill-rule="evenodd" clip-rule="evenodd" d="M12 4.5C13.6569 4.5 15 5.84315 15 7.5V12C15 13.6569 13.6569 15 12 15H3C1.34315 15 0 13.6569 0 12V7.5C0 5.84315 1.34315 4.5 3 4.5V1.5C3 0.671573 3.67157 0 4.5 0H10.5C11.3284 0 12 0.671573 12 1.5V4.5ZM12 6V7.5C12 8.32843 11.3284 9 10.5 9H4.5C3.67157 9 3 8.32843 3 7.5V6C2.17157 6 1.5 6.67157 1.5 7.5V12C1.5 12.8284 2.17157 13.5 3 13.5H12C12.8284 13.5 13.5 12.8284 13.5 12V7.5C13.5 6.67157 12.8284 6 12 6ZM4.5 7.5V1.5H10.5V7.5H4.5ZM3.75 12C3.33579 12 3 11.6642 3 11.25C3 10.8358 3.33579 10.5 3.75 10.5C4.16421 10.5 4.5 10.8358 4.5 11.25C4.5 11.6642 4.16421 12 3.75 12ZM12 11.25C12 10.8358 11.6642 10.5 11.25 10.5H9.75C9.33579 10.5 9 10.8358 9 11.25C9 11.6642 9.33579 12 9.75 12H11.25C11.6642 12 12 11.6642 12 11.25Z" fill="#538697"/>
</svg>
