<svg width="18" height="18" viewBox="0 0 18 18" fill="none" xmlns="http://www.w3.org/2000/svg">
<path fill-rule="evenodd" clip-rule="evenodd" d="M13.3332 12.1667L17.0832 15.9167C17.4165 16.25 17.4165 16.75 17.0832 17.0834C16.9165 17.25 16.6665 17.3334 16.4998 17.3334C16.3332 17.3334 16.0832 17.25 15.9165 17.0834L12.1665 13.3334C10.9165 14.25 9.4165 14.8334 7.74984 14.8334C3.83317 14.8334 0.666504 11.6667 0.666504 7.75002C0.666504 3.83335 3.83317 0.666687 7.74984 0.666687C11.6665 0.666687 14.8332 3.83335 14.8332 7.75002C14.8332 9.41669 14.2498 11 13.3332 12.1667ZM7.74983 2.33335C4.74983 2.33335 2.33316 4.75002 2.33316 7.75002C2.33316 10.75 4.74983 13.1667 7.74983 13.1667C9.24983 13.1667 10.5832 12.5834 11.5832 11.5834C12.5832 10.5834 13.1665 9.25002 13.1665 7.75002C13.1665 4.75002 10.7498 2.33335 7.74983 2.33335Z" fill="#538697"/>
</svg>
