<svg width="18" height="18" viewBox="0 0 18 18" fill="none" xmlns="http://www.w3.org/2000/svg">
<path fill-rule="evenodd" clip-rule="evenodd" d="M16.1627 13.5018C16.6848 13.9691 17.0133 14.6482 17.0133 15.404C17.0133 16.8135 15.8708 17.956 14.4613 17.956C13.3458 17.956 12.3975 17.2403 12.0505 16.243C12.0046 16.2507 11.9574 16.2547 11.9093 16.2547H9.21212C8.86178 17.2459 7.91649 17.956 6.80533 17.956C5.69418 17.956 4.74888 17.2459 4.39855 16.2547H0.850667C0.380856 16.2547 0 15.8738 0 15.404C0 14.9342 0.380856 14.5534 0.850667 14.5534H4.39855C4.66613 13.7963 5.28081 13.2032 6.05138 12.9652L7.45587 3.13378C7.63548 1.87654 8.71222 0.942688 9.98223 0.942688H13.6107C15.0201 0.942688 16.1627 2.08526 16.1627 3.49469V13.5018ZM14.4616 12.852V3.49469C14.4616 3.02488 14.0807 2.64403 13.6109 2.64403H9.98245C9.55912 2.64403 9.2002 2.95531 9.14033 3.37439L7.76003 13.0365C8.43602 13.3093 8.96841 13.8632 9.21234 14.5534H11.9096C11.9576 14.5534 12.0048 14.5573 12.0507 14.565C12.3977 13.5677 13.3461 12.852 14.4616 12.852ZM5.95481 15.404C5.95481 14.9372 6.33077 14.5583 6.79639 14.5534H6.81565C7.28078 14.5589 7.65615 14.9376 7.65615 15.404C7.65615 15.8738 7.27529 16.2547 6.80548 16.2547C6.33567 16.2547 5.95481 15.8738 5.95481 15.404ZM14.4612 16.2547C14.931 16.2547 15.3118 15.8738 15.3118 15.404C15.3118 14.9342 14.931 14.5534 14.4612 14.5534C13.9914 14.5534 13.6105 14.9342 13.6105 15.404C13.6105 15.8738 13.9914 16.2547 14.4612 16.2547ZM0 12.0014C0 12.4712 0.380856 12.852 0.850667 12.852H4.25333C4.72314 12.852 5.104 12.4712 5.104 12.0014C5.104 11.5315 4.72314 11.1507 4.25333 11.1507H0.850667C0.380856 11.1507 0 11.5315 0 12.0014ZM0.850667 10.3C0.380856 10.3 0 9.91916 0 9.44935C0 8.97954 0.380856 8.59869 0.850667 8.59869H4.25333C4.72314 8.59869 5.104 8.97954 5.104 9.44935C5.104 9.91916 4.72314 10.3 4.25333 10.3H0.850667ZM0 6.89736C0 7.36717 0.380856 7.74802 0.850667 7.74802H4.25333C4.72314 7.74802 5.104 7.36717 5.104 6.89736C5.104 6.42755 4.72314 6.04669 4.25333 6.04669H0.850667C0.380856 6.04669 0 6.42755 0 6.89736Z" fill="#538697"/>
</svg>
