<svg width="19" height="19" viewBox="0 0 19 19" fill="none" xmlns="http://www.w3.org/2000/svg">
<path fill-rule="evenodd" clip-rule="evenodd" d="M9.5 19C4.25329 19 0 14.7467 0 9.5C0 4.25329 4.25329 0 9.5 0C14.7467 0 19 4.25329 19 9.5C19 14.7467 14.7467 19 9.5 19ZM9.5 17.1C13.6974 17.1 17.1 13.6974 17.1 9.5C17.1 5.30264 13.6974 1.9 9.5 1.9C5.30264 1.9 1.9 5.30264 1.9 9.5C1.9 13.6974 5.30264 17.1 9.5 17.1ZM8.55 10.0565L7.32175 8.82825C6.95075 8.45725 6.34925 8.45725 5.97825 8.82825C5.60725 9.19925 5.60725 9.80075 5.97825 10.1718L8.55 12.7435L13.0218 8.27175C13.3927 7.90075 13.3927 7.29925 13.0218 6.92825C12.6508 6.55725 12.0492 6.55725 11.6782 6.92825L8.55 10.0565Z" fill="#2FA84F"/>
</svg>
