<svg width="19" height="19" viewBox="0 0 19 19" fill="none" xmlns="http://www.w3.org/2000/svg">
<path fill-rule="evenodd" clip-rule="evenodd" d="M0 9.5C0 14.7467 4.25329 19 9.5 19C14.7467 19 19 14.7467 19 9.5C19 4.25329 14.7467 0 9.5 0C4.25329 0 0 4.25329 0 9.5ZM3.49614 14.1604L14.1604 3.49614C12.8734 2.49573 11.2563 1.9 9.5 1.9C5.30264 1.9 1.9 5.30264 1.9 9.5C1.9 11.2563 2.49573 12.8734 3.49614 14.1604ZM4.83953 15.5039C6.12648 16.5043 7.74361 17.1 9.49989 17.1C13.6973 17.1 17.0999 13.6974 17.0999 9.5C17.0999 7.74373 16.5042 6.12659 15.5038 4.83964L4.83953 15.5039Z" fill="#EA5455"/>
</svg>
