<svg width="17" height="17" viewBox="0 0 17 17" fill="none" xmlns="http://www.w3.org/2000/svg">
<path d="M8.5 6.8C6.62223 6.8 5.1 5.27777 5.1 3.4C5.1 1.52223 6.62223 0 8.5 0C10.3778 0 11.9 1.52223 11.9 3.4C11.9 5.27777 10.3778 6.8 8.5 6.8ZM8.5 5.1C9.43888 5.1 10.2 4.33888 10.2 3.4C10.2 2.46112 9.43888 1.7 8.5 1.7C7.56112 1.7 6.8 2.46112 6.8 3.4C6.8 4.33888 7.56112 5.1 8.5 5.1ZM8.5 17C3.85743 17 0 15.2856 0 12.75C0 10.2144 3.85743 8.5 8.5 8.5C13.1426 8.5 17 10.2144 17 12.75C17 15.2856 13.1426 17 8.5 17ZM8.5 15.3C12.3074 15.3 15.3 13.9699 15.3 12.75C15.3 11.5301 12.3074 10.2 8.5 10.2C4.69262 10.2 1.7 11.5301 1.7 12.75C1.7 13.9699 4.69262 15.3 8.5 15.3Z" fill="#538697"/>
</svg>
