<svg width="17" height="17" viewBox="0 0 17 17" fill="none" xmlns="http://www.w3.org/2000/svg">
<path fill-rule="evenodd" clip-rule="evenodd" d="M7.65 4.675C7.65 7.25693 9.74307 9.35 12.325 9.35C14.9069 9.35 17 7.25693 17 4.675C17 2.09307 14.9069 0 12.325 0C9.74307 0 7.65 2.09307 7.65 4.675ZM15.3 4.675C15.3 6.31805 13.968 7.65 12.325 7.65C10.682 7.65 9.35 6.31805 9.35 4.675C9.35 3.03195 10.682 1.7 12.325 1.7C13.968 1.7 15.3 3.03195 15.3 4.675ZM4.675 17C2.09307 17 0 14.9069 0 12.325C0 9.74307 2.09307 7.65 4.675 7.65C7.25693 7.65 9.35 9.74307 9.35 12.325C9.35 14.9069 7.25693 17 4.675 17ZM7.65 12.325C7.65 13.968 6.31805 15.3 4.675 15.3C3.03195 15.3 1.7 13.968 1.7 12.325C1.7 10.682 3.03195 9.35 4.675 9.35C6.31805 9.35 7.65 10.682 7.65 12.325ZM3.4 6.8C1.52223 6.8 0 5.27777 0 3.4C0 1.52223 1.52223 0 3.4 0C5.27777 0 6.8 1.52223 6.8 3.4C6.8 5.27777 5.27777 6.8 3.4 6.8ZM5.1 3.4C5.1 4.33888 4.33888 5.1 3.4 5.1C2.46112 5.1 1.7 4.33888 1.7 3.4C1.7 2.46112 2.46112 1.7 3.4 1.7C4.33888 1.7 5.1 2.46112 5.1 3.4ZM13.6 17C11.7222 17 10.2 15.4778 10.2 13.6C10.2 11.7222 11.7222 10.2 13.6 10.2C15.4778 10.2 17 11.7222 17 13.6C17 15.4778 15.4778 17 13.6 17ZM15.3 13.6C15.3 14.5389 14.5389 15.3 13.6 15.3C12.6611 15.3 11.9 14.5389 11.9 13.6C11.9 12.6611 12.6611 11.9 13.6 11.9C14.5389 11.9 15.3 12.6611 15.3 13.6Z" fill="#538697"/>
</svg>
