<svg width="557" height="281" viewBox="0 0 557 281" fill="none" xmlns="http://www.w3.org/2000/svg">
<path d="M66.8535 235V231.678H64.8848L63.1211 235H61.9199L63.9004 231.367C62.7988 230.934 62.248 230.158 62.248 229.041C62.248 228.229 62.5137 227.598 63.0449 227.148C63.5801 226.695 64.3223 226.469 65.2715 226.469H67.9844V235H66.8535ZM63.373 229.041C63.373 229.557 63.5332 229.971 63.8535 230.283C64.1777 230.596 64.627 230.754 65.2012 230.758H66.8535V227.395H65.2539C64.6445 227.395 64.1777 227.539 63.8535 227.828C63.5332 228.117 63.373 228.521 63.373 229.041ZM75.0391 235H73.9551V232.293H71.043V235H69.9531V228.66H71.043V231.408H73.9551V228.66H75.0391V235ZM76.8848 235V228.66H79.3574C80.2012 228.66 80.8477 228.809 81.2969 229.105C81.75 229.398 81.9766 229.83 81.9766 230.4C81.9766 230.693 81.8887 230.959 81.7129 231.197C81.5371 231.432 81.2773 231.611 80.9336 231.736C81.3164 231.826 81.623 232.002 81.8535 232.264C82.0879 232.525 82.2051 232.838 82.2051 233.201C82.2051 233.783 81.9902 234.229 81.5605 234.537C81.1348 234.846 80.5312 235 79.75 235H76.8848ZM77.9688 232.217V234.127H79.7617C80.2148 234.127 80.5527 234.043 80.7754 233.875C81.002 233.707 81.1152 233.471 81.1152 233.166C81.1152 232.533 80.6504 232.217 79.7207 232.217H77.9688ZM77.9688 231.35H79.3691C80.3848 231.35 80.8926 231.053 80.8926 230.459C80.8926 229.865 80.4121 229.559 79.4512 229.539H77.9688V231.35ZM87.5547 235C87.4922 234.875 87.4414 234.652 87.4023 234.332C86.8984 234.855 86.2969 235.117 85.5977 235.117C84.9727 235.117 84.459 234.941 84.0566 234.59C83.6582 234.234 83.459 233.785 83.459 233.242C83.459 232.582 83.709 232.07 84.209 231.707C84.7129 231.34 85.4199 231.156 86.3301 231.156H87.3848V230.658C87.3848 230.279 87.2715 229.979 87.0449 229.756C86.8184 229.529 86.4844 229.416 86.043 229.416C85.6562 229.416 85.332 229.514 85.0703 229.709C84.8086 229.904 84.6777 230.141 84.6777 230.418H83.5879C83.5879 230.102 83.6992 229.797 83.9219 229.504C84.1484 229.207 84.4531 228.973 84.8359 228.801C85.2227 228.629 85.6465 228.543 86.1074 228.543C86.8379 228.543 87.4102 228.727 87.8242 229.094C88.2383 229.457 88.4531 229.959 88.4688 230.6V233.518C88.4688 234.1 88.543 234.562 88.6914 234.906V235H87.5547ZM85.7559 234.174C86.0957 234.174 86.418 234.086 86.7227 233.91C87.0273 233.734 87.248 233.506 87.3848 233.225V231.924H86.5352C85.207 231.924 84.543 232.312 84.543 233.09C84.543 233.43 84.6562 233.695 84.8828 233.887C85.1094 234.078 85.4004 234.174 85.7559 234.174ZM95.5234 231.9C95.5234 232.865 95.3027 233.643 94.8613 234.232C94.4199 234.822 93.8223 235.117 93.0684 235.117C92.2988 235.117 91.6934 234.873 91.252 234.385V237.438H90.168V228.66H91.1582L91.2109 229.363C91.6523 228.816 92.2656 228.543 93.0508 228.543C93.8125 228.543 94.4141 228.83 94.8555 229.404C95.3008 229.979 95.5234 230.777 95.5234 231.801V231.9ZM94.4395 231.777C94.4395 231.062 94.2871 230.498 93.9824 230.084C93.6777 229.67 93.2598 229.463 92.7285 229.463C92.0723 229.463 91.5801 229.754 91.252 230.336V233.365C91.5762 233.943 92.0723 234.232 92.7402 234.232C93.2598 234.232 93.6719 234.027 93.9766 233.617C94.2852 233.203 94.4395 232.59 94.4395 231.777ZM98.0898 230.846H99.7363C100.455 230.854 101.023 231.041 101.441 231.408C101.859 231.775 102.068 232.273 102.068 232.902C102.068 233.535 101.854 234.043 101.424 234.426C100.994 234.809 100.416 235 99.6895 235H97.0059V228.66H98.0898V230.846ZM98.0898 231.73V234.115H99.7012C100.107 234.115 100.422 234.012 100.645 233.805C100.867 233.594 100.979 233.307 100.979 232.943C100.979 232.592 100.869 232.305 100.65 232.082C100.436 231.855 100.133 231.738 99.7422 231.73H98.0898Z" fill="black"/>
<path d="M127.605 227.324H127.787C128.432 227.328 129.02 227.479 129.551 227.775C130.082 228.072 130.494 228.482 130.787 229.006C131.084 229.525 131.232 230.107 131.232 230.752C131.232 231.4 131.084 231.988 130.787 232.516C130.49 233.043 130.08 233.455 129.557 233.752C129.033 234.045 128.451 234.195 127.811 234.203H127.605V235.352H126.516V234.203H126.352C125.699 234.203 125.105 234.055 124.57 233.758C124.039 233.461 123.625 233.051 123.328 232.527C123.035 232.004 122.889 231.416 122.889 230.764C122.889 230.111 123.035 229.523 123.328 229C123.625 228.477 124.039 228.066 124.57 227.77C125.105 227.473 125.699 227.324 126.352 227.324H126.516V226.117H127.605V227.324ZM126.352 228.209C125.617 228.209 125.035 228.436 124.605 228.889C124.18 229.338 123.967 229.963 123.967 230.764C123.967 231.568 124.18 232.195 124.605 232.645C125.031 233.09 125.617 233.312 126.363 233.312H126.516V228.209H126.352ZM127.605 228.209V233.312H127.77C128.516 233.312 129.098 233.084 129.516 232.627C129.938 232.166 130.148 231.541 130.148 230.752C130.148 229.971 129.938 229.352 129.516 228.895C129.098 228.438 128.508 228.209 127.746 228.209H127.605ZM135.111 235.117C134.252 235.117 133.553 234.836 133.014 234.273C132.475 233.707 132.205 232.951 132.205 232.006V231.807C132.205 231.178 132.324 230.617 132.562 230.125C132.805 229.629 133.141 229.242 133.57 228.965C134.004 228.684 134.473 228.543 134.977 228.543C135.801 228.543 136.441 228.814 136.898 229.357C137.355 229.9 137.584 230.678 137.584 231.689V232.141H133.289C133.305 232.766 133.486 233.271 133.834 233.658C134.186 234.041 134.631 234.232 135.17 234.232C135.553 234.232 135.877 234.154 136.143 233.998C136.408 233.842 136.641 233.635 136.84 233.377L137.502 233.893C136.971 234.709 136.174 235.117 135.111 235.117ZM134.977 229.434C134.539 229.434 134.172 229.594 133.875 229.914C133.578 230.23 133.395 230.676 133.324 231.25H136.5V231.168C136.469 230.617 136.32 230.191 136.055 229.891C135.789 229.586 135.43 229.434 134.977 229.434ZM138.943 235V228.66H141.416C142.26 228.66 142.906 228.809 143.355 229.105C143.809 229.398 144.035 229.83 144.035 230.4C144.035 230.693 143.947 230.959 143.771 231.197C143.596 231.432 143.336 231.611 142.992 231.736C143.375 231.826 143.682 232.002 143.912 232.264C144.146 232.525 144.264 232.838 144.264 233.201C144.264 233.783 144.049 234.229 143.619 234.537C143.193 234.846 142.59 235 141.809 235H138.943ZM140.027 232.217V234.127H141.82C142.273 234.127 142.611 234.043 142.834 233.875C143.061 233.707 143.174 233.471 143.174 233.166C143.174 232.533 142.709 232.217 141.779 232.217H140.027ZM140.027 231.35H141.428C142.443 231.35 142.951 231.053 142.951 230.459C142.951 229.865 142.471 229.559 141.51 229.539H140.027V231.35ZM151.055 231.9C151.055 232.865 150.834 233.643 150.393 234.232C149.951 234.822 149.354 235.117 148.6 235.117C147.83 235.117 147.225 234.873 146.783 234.385V237.438H145.699V228.66H146.689L146.742 229.363C147.184 228.816 147.797 228.543 148.582 228.543C149.344 228.543 149.945 228.83 150.387 229.404C150.832 229.979 151.055 230.777 151.055 231.801V231.9ZM149.971 231.777C149.971 231.062 149.818 230.498 149.514 230.084C149.209 229.67 148.791 229.463 148.26 229.463C147.604 229.463 147.111 229.754 146.783 230.336V233.365C147.107 233.943 147.604 234.232 148.271 234.232C148.791 234.232 149.203 234.027 149.508 233.617C149.816 233.203 149.971 232.59 149.971 231.777ZM156.352 235C156.289 234.875 156.238 234.652 156.199 234.332C155.695 234.855 155.094 235.117 154.395 235.117C153.77 235.117 153.256 234.941 152.854 234.59C152.455 234.234 152.256 233.785 152.256 233.242C152.256 232.582 152.506 232.07 153.006 231.707C153.51 231.34 154.217 231.156 155.127 231.156H156.182V230.658C156.182 230.279 156.068 229.979 155.842 229.756C155.615 229.529 155.281 229.416 154.84 229.416C154.453 229.416 154.129 229.514 153.867 229.709C153.605 229.904 153.475 230.141 153.475 230.418H152.385C152.385 230.102 152.496 229.797 152.719 229.504C152.945 229.207 153.25 228.973 153.633 228.801C154.02 228.629 154.443 228.543 154.904 228.543C155.635 228.543 156.207 228.727 156.621 229.094C157.035 229.457 157.25 229.959 157.266 230.6V233.518C157.266 234.1 157.34 234.562 157.488 234.906V235H156.352ZM154.553 234.174C154.893 234.174 155.215 234.086 155.52 233.91C155.824 233.734 156.045 233.506 156.182 233.225V231.924H155.332C154.004 231.924 153.34 232.312 153.34 233.09C153.34 233.43 153.453 233.695 153.68 233.887C153.906 234.078 154.197 234.174 154.553 234.174ZM164.162 228.66V235H163.072V229.557H160.916L160.787 231.93C160.717 233.02 160.533 233.799 160.236 234.268C159.943 234.736 159.477 234.98 158.836 235H158.402V234.045L158.713 234.021C159.064 233.982 159.316 233.779 159.469 233.412C159.621 233.045 159.719 232.365 159.762 231.373L159.879 228.66H164.162ZM167.086 230.846H168.732C169.451 230.854 170.02 231.041 170.438 231.408C170.855 231.775 171.064 232.273 171.064 232.902C171.064 233.535 170.85 234.043 170.42 234.426C169.99 234.809 169.412 235 168.686 235H166.002V228.66H167.086V230.846ZM167.086 231.73V234.115H168.697C169.104 234.115 169.418 234.012 169.641 233.805C169.863 233.594 169.975 233.307 169.975 232.943C169.975 232.592 169.865 232.305 169.646 232.082C169.432 231.855 169.129 231.738 168.738 231.73H167.086Z" fill="black"/>
<path d="M193.924 226.469L196.713 233.43L199.502 226.469H200.961V235H199.836V231.678L199.941 228.092L197.141 235H196.279L193.484 228.109L193.596 231.678V235H192.471V226.469H193.924ZM206.691 235C206.629 234.875 206.578 234.652 206.539 234.332C206.035 234.855 205.434 235.117 204.734 235.117C204.109 235.117 203.596 234.941 203.193 234.59C202.795 234.234 202.596 233.785 202.596 233.242C202.596 232.582 202.846 232.07 203.346 231.707C203.85 231.34 204.557 231.156 205.467 231.156H206.521V230.658C206.521 230.279 206.408 229.979 206.182 229.756C205.955 229.529 205.621 229.416 205.18 229.416C204.793 229.416 204.469 229.514 204.207 229.709C203.945 229.904 203.814 230.141 203.814 230.418H202.725C202.725 230.102 202.836 229.797 203.059 229.504C203.285 229.207 203.59 228.973 203.973 228.801C204.359 228.629 204.783 228.543 205.244 228.543C205.975 228.543 206.547 228.727 206.961 229.094C207.375 229.457 207.59 229.959 207.605 230.6V233.518C207.605 234.1 207.68 234.562 207.828 234.906V235H206.691ZM204.893 234.174C205.232 234.174 205.555 234.086 205.859 233.91C206.164 233.734 206.385 233.506 206.521 233.225V231.924H205.672C204.344 231.924 203.68 232.312 203.68 233.09C203.68 233.43 203.793 233.695 204.02 233.887C204.246 234.078 204.537 234.174 204.893 234.174ZM214.66 231.9C214.66 232.865 214.439 233.643 213.998 234.232C213.557 234.822 212.959 235.117 212.205 235.117C211.436 235.117 210.83 234.873 210.389 234.385V237.438H209.305V228.66H210.295L210.348 229.363C210.789 228.816 211.402 228.543 212.188 228.543C212.949 228.543 213.551 228.83 213.992 229.404C214.438 229.979 214.66 230.777 214.66 231.801V231.9ZM213.576 231.777C213.576 231.062 213.424 230.498 213.119 230.084C212.814 229.67 212.396 229.463 211.865 229.463C211.209 229.463 210.717 229.754 210.389 230.336V233.365C210.713 233.943 211.209 234.232 211.877 234.232C212.396 234.232 212.809 234.027 213.113 233.617C213.422 233.203 213.576 232.59 213.576 231.777ZM220.285 229.539H218.158V235H217.074V229.539H214.988V228.66H220.285V229.539Z" fill="black"/>
<path d="M246.047 232.773H242.473L241.67 235H240.51L243.768 226.469H244.752L248.016 235H246.861L246.047 232.773ZM242.812 231.848H245.713L244.26 227.857L242.812 231.848ZM254.18 235H253.096V229.557H250.178V235H249.088V228.66H254.18V235ZM261.275 231.9C261.275 232.865 261.055 233.643 260.613 234.232C260.172 234.822 259.574 235.117 258.82 235.117C258.051 235.117 257.445 234.873 257.004 234.385V237.438H255.92V228.66H256.91L256.963 229.363C257.404 228.816 258.018 228.543 258.803 228.543C259.564 228.543 260.166 228.83 260.607 229.404C261.053 229.979 261.275 230.777 261.275 231.801V231.9ZM260.191 231.777C260.191 231.062 260.039 230.498 259.734 230.084C259.43 229.67 259.012 229.463 258.48 229.463C257.824 229.463 257.332 229.754 257.004 230.336V233.365C257.328 233.943 257.824 234.232 258.492 234.232C259.012 234.232 259.424 234.027 259.729 233.617C260.037 233.203 260.191 232.59 260.191 231.777ZM265.289 235.117C264.43 235.117 263.73 234.836 263.191 234.273C262.652 233.707 262.383 232.951 262.383 232.006V231.807C262.383 231.178 262.502 230.617 262.74 230.125C262.982 229.629 263.318 229.242 263.748 228.965C264.182 228.684 264.65 228.543 265.154 228.543C265.979 228.543 266.619 228.814 267.076 229.357C267.533 229.9 267.762 230.678 267.762 231.689V232.141H263.467C263.482 232.766 263.664 233.271 264.012 233.658C264.363 234.041 264.809 234.232 265.348 234.232C265.73 234.232 266.055 234.154 266.32 233.998C266.586 233.842 266.818 233.635 267.018 233.377L267.68 233.893C267.148 234.709 266.352 235.117 265.289 235.117ZM265.154 229.434C264.717 229.434 264.35 229.594 264.053 229.914C263.756 230.23 263.572 230.676 263.502 231.25H266.678V231.168C266.646 230.617 266.498 230.191 266.232 229.891C265.967 229.586 265.607 229.434 265.154 229.434ZM274.219 228.66V235H273.129V229.557H270.973L270.844 231.93C270.773 233.02 270.59 233.799 270.293 234.268C270 234.736 269.533 234.98 268.893 235H268.459V234.045L268.77 234.021C269.121 233.982 269.373 233.779 269.525 233.412C269.678 233.045 269.775 232.365 269.818 231.373L269.936 228.66H274.219ZM277.143 230.846H278.789C279.508 230.854 280.076 231.041 280.494 231.408C280.912 231.775 281.121 232.273 281.121 232.902C281.121 233.535 280.906 234.043 280.477 234.426C280.047 234.809 279.469 235 278.742 235H276.059V228.66H277.143V230.846ZM277.143 231.73V234.115H278.754C279.16 234.115 279.475 234.012 279.697 233.805C279.92 233.594 280.031 233.307 280.031 232.943C280.031 232.592 279.922 232.305 279.703 232.082C279.488 231.855 279.186 231.738 278.795 231.73H277.143Z" fill="black"/>
<path d="M303.479 226.469L306.268 233.43L309.057 226.469H310.516V235H309.391V231.678L309.496 228.092L306.695 235H305.834L303.039 228.109L303.15 231.678V235H302.025V226.469H303.479ZM316.246 235C316.184 234.875 316.133 234.652 316.094 234.332C315.59 234.855 314.988 235.117 314.289 235.117C313.664 235.117 313.15 234.941 312.748 234.59C312.35 234.234 312.15 233.785 312.15 233.242C312.15 232.582 312.4 232.07 312.9 231.707C313.404 231.34 314.111 231.156 315.021 231.156H316.076V230.658C316.076 230.279 315.963 229.979 315.736 229.756C315.51 229.529 315.176 229.416 314.734 229.416C314.348 229.416 314.023 229.514 313.762 229.709C313.5 229.904 313.369 230.141 313.369 230.418H312.279C312.279 230.102 312.391 229.797 312.613 229.504C312.84 229.207 313.145 228.973 313.527 228.801C313.914 228.629 314.338 228.543 314.799 228.543C315.529 228.543 316.102 228.727 316.516 229.094C316.93 229.457 317.145 229.959 317.16 230.6V233.518C317.16 234.1 317.234 234.562 317.383 234.906V235H316.246ZM314.447 234.174C314.787 234.174 315.109 234.086 315.414 233.91C315.719 233.734 315.939 233.506 316.076 233.225V231.924H315.227C313.898 231.924 313.234 232.312 313.234 233.09C313.234 233.43 313.348 233.695 313.574 233.887C313.801 234.078 314.092 234.174 314.447 234.174ZM322.961 228.66H324.045V235H322.961V230.377L320.037 235H318.953V228.66H320.037V233.289L322.961 228.66ZM323.254 226.352C323.254 226.824 323.092 227.205 322.768 227.494C322.447 227.779 322.025 227.922 321.502 227.922C320.979 227.922 320.555 227.777 320.23 227.488C319.906 227.199 319.744 226.82 319.744 226.352H320.629C320.629 226.625 320.703 226.84 320.852 226.996C321 227.148 321.217 227.225 321.502 227.225C321.775 227.225 321.988 227.148 322.141 226.996C322.297 226.844 322.375 226.629 322.375 226.352H323.254Z" fill="black"/>
<path d="M350.473 226.469H351.598V235H350.473V228.426L346.271 235H345.141V226.469H346.271V233.043L350.473 226.469ZM354.662 231.35H356.186C356.268 230.506 356.566 229.828 357.082 229.316C357.602 228.801 358.256 228.543 359.045 228.543C359.873 228.543 360.551 228.822 361.078 229.381C361.605 229.939 361.891 230.666 361.934 231.561L361.939 231.9C361.939 232.518 361.818 233.074 361.576 233.57C361.334 234.066 360.994 234.449 360.557 234.719C360.119 234.984 359.619 235.117 359.057 235.117C358.24 235.117 357.572 234.852 357.053 234.32C356.533 233.785 356.242 233.092 356.18 232.24H354.662V235H353.578V228.66H354.662V231.35ZM357.252 231.9C357.252 232.604 357.414 233.168 357.738 233.594C358.066 234.02 358.506 234.232 359.057 234.232C359.607 234.232 360.043 234.016 360.363 233.582C360.688 233.148 360.85 232.545 360.85 231.771C360.85 231.08 360.686 230.518 360.357 230.084C360.029 229.65 359.592 229.434 359.045 229.434C358.506 229.434 358.072 229.646 357.744 230.072C357.416 230.498 357.252 231.107 357.252 231.9ZM368.455 235H367.371V232.293H364.459V235H363.369V228.66H364.459V231.408H367.371V228.66H368.455V235ZM371.385 230.846H373.031C373.75 230.854 374.318 231.041 374.736 231.408C375.154 231.775 375.363 232.273 375.363 232.902C375.363 233.535 375.148 234.043 374.719 234.426C374.289 234.809 373.711 235 372.984 235H370.301V228.66H371.385V230.846ZM371.385 231.73V234.115H372.996C373.402 234.115 373.717 234.012 373.939 233.805C374.162 233.594 374.273 233.307 374.273 232.943C374.273 232.592 374.164 232.305 373.945 232.082C373.73 231.855 373.428 231.738 373.037 231.73H371.385Z" fill="black"/>
<path d="M401.508 226.469H402.633V235H401.508V228.426L397.307 235H396.176V226.469H397.307V233.043L401.508 226.469ZM405.697 231.35H407.221C407.303 230.506 407.602 229.828 408.117 229.316C408.637 228.801 409.291 228.543 410.08 228.543C410.908 228.543 411.586 228.822 412.113 229.381C412.641 229.939 412.926 230.666 412.969 231.561L412.975 231.9C412.975 232.518 412.854 233.074 412.611 233.57C412.369 234.066 412.029 234.449 411.592 234.719C411.154 234.984 410.654 235.117 410.092 235.117C409.275 235.117 408.607 234.852 408.088 234.32C407.568 233.785 407.277 233.092 407.215 232.24H405.697V235H404.613V228.66H405.697V231.35ZM408.287 231.9C408.287 232.604 408.449 233.168 408.773 233.594C409.102 234.02 409.541 234.232 410.092 234.232C410.643 234.232 411.078 234.016 411.398 233.582C411.723 233.148 411.885 232.545 411.885 231.771C411.885 231.08 411.721 230.518 411.393 230.084C411.064 229.65 410.627 229.434 410.08 229.434C409.541 229.434 409.107 229.646 408.779 230.072C408.451 230.498 408.287 231.107 408.287 231.9ZM419.426 228.66V235H418.336V229.557H416.18L416.051 231.93C415.98 233.02 415.797 233.799 415.5 234.268C415.207 234.736 414.74 234.98 414.1 235H413.666V234.045L413.977 234.021C414.328 233.982 414.58 233.779 414.732 233.412C414.885 233.045 414.982 232.365 415.025 231.373L415.143 228.66H419.426ZM422.35 230.846H423.996C424.715 230.854 425.283 231.041 425.701 231.408C426.119 231.775 426.328 232.273 426.328 232.902C426.328 233.535 426.113 234.043 425.684 234.426C425.254 234.809 424.676 235 423.949 235H421.266V228.66H422.35V230.846ZM422.35 231.73V234.115H423.961C424.367 234.115 424.682 234.012 424.904 233.805C425.127 233.594 425.238 233.307 425.238 232.943C425.238 232.592 425.129 232.305 424.91 232.082C424.695 231.855 424.393 231.738 424.002 231.73H422.35Z" fill="black"/>
<path d="M452.016 232.773H448.441L447.639 235H446.479L449.736 226.469H450.721L453.984 235H452.83L452.016 232.773ZM448.781 231.848H451.682L450.229 227.857L448.781 231.848ZM455.062 235V228.66H457.535C458.379 228.66 459.025 228.809 459.475 229.105C459.928 229.398 460.154 229.83 460.154 230.4C460.154 230.693 460.066 230.959 459.891 231.197C459.715 231.432 459.455 231.611 459.111 231.736C459.494 231.826 459.801 232.002 460.031 232.264C460.266 232.525 460.383 232.838 460.383 233.201C460.383 233.783 460.168 234.229 459.738 234.537C459.312 234.846 458.709 235 457.928 235H455.062ZM456.146 232.217V234.127H457.939C458.393 234.127 458.73 234.043 458.953 233.875C459.18 233.707 459.293 233.471 459.293 233.166C459.293 232.533 458.828 232.217 457.898 232.217H456.146ZM456.146 231.35H457.547C458.562 231.35 459.07 231.053 459.07 230.459C459.07 229.865 458.59 229.559 457.629 229.539H456.146V231.35ZM465.914 229.557H462.99V235H461.9V228.66H465.914V229.557ZM468.932 233.412L470.408 228.66H471.568L469.02 235.979C468.625 237.033 467.998 237.561 467.139 237.561L466.934 237.543L466.529 237.467V236.588L466.822 236.611C467.189 236.611 467.475 236.537 467.678 236.389C467.885 236.24 468.055 235.969 468.188 235.574L468.428 234.93L466.166 228.66H467.35L468.932 233.412ZM475.002 234.232C475.389 234.232 475.727 234.115 476.016 233.881C476.305 233.646 476.465 233.354 476.496 233.002H477.521C477.502 233.365 477.377 233.711 477.146 234.039C476.916 234.367 476.607 234.629 476.221 234.824C475.838 235.02 475.432 235.117 475.002 235.117C474.139 235.117 473.451 234.83 472.939 234.256C472.432 233.678 472.178 232.889 472.178 231.889V231.707C472.178 231.09 472.291 230.541 472.518 230.061C472.744 229.58 473.068 229.207 473.49 228.941C473.916 228.676 474.418 228.543 474.996 228.543C475.707 228.543 476.297 228.756 476.766 229.182C477.238 229.607 477.49 230.16 477.521 230.84H476.496C476.465 230.43 476.309 230.094 476.027 229.832C475.75 229.566 475.406 229.434 474.996 229.434C474.445 229.434 474.018 229.633 473.713 230.031C473.412 230.426 473.262 230.998 473.262 231.748V231.953C473.262 232.684 473.412 233.246 473.713 233.641C474.014 234.035 474.443 234.232 475.002 234.232ZM483.451 229.539H481.324V235H480.24V229.539H478.154V228.66H483.451V229.539Z" fill="black"/>
<path d="M510.646 232.293C510.541 233.195 510.207 233.893 509.645 234.385C509.086 234.873 508.342 235.117 507.412 235.117C506.404 235.117 505.596 234.756 504.986 234.033C504.381 233.311 504.078 232.344 504.078 231.133V230.312C504.078 229.52 504.219 228.822 504.5 228.221C504.785 227.619 505.188 227.158 505.707 226.838C506.227 226.514 506.828 226.352 507.512 226.352C508.418 226.352 509.145 226.605 509.691 227.113C510.238 227.617 510.557 228.316 510.646 229.211H509.516C509.418 228.531 509.205 228.039 508.877 227.734C508.553 227.43 508.098 227.277 507.512 227.277C506.793 227.277 506.229 227.543 505.818 228.074C505.412 228.605 505.209 229.361 505.209 230.342V231.168C505.209 232.094 505.402 232.83 505.789 233.377C506.176 233.924 506.717 234.197 507.412 234.197C508.037 234.197 508.516 234.057 508.848 233.775C509.184 233.49 509.406 232.996 509.516 232.293H510.646ZM514.648 235.117C513.789 235.117 513.09 234.836 512.551 234.273C512.012 233.707 511.742 232.951 511.742 232.006V231.807C511.742 231.178 511.861 230.617 512.1 230.125C512.342 229.629 512.678 229.242 513.107 228.965C513.541 228.684 514.01 228.543 514.514 228.543C515.338 228.543 515.979 228.814 516.436 229.357C516.893 229.9 517.121 230.678 517.121 231.689V232.141H512.826C512.842 232.766 513.023 233.271 513.371 233.658C513.723 234.041 514.168 234.232 514.707 234.232C515.09 234.232 515.414 234.154 515.68 233.998C515.945 233.842 516.178 233.635 516.377 233.377L517.039 233.893C516.508 234.709 515.711 235.117 514.648 235.117ZM514.514 229.434C514.076 229.434 513.709 229.594 513.412 229.914C513.115 230.23 512.932 230.676 512.861 231.25H516.037V231.168C516.006 230.617 515.857 230.191 515.592 229.891C515.326 229.586 514.967 229.434 514.514 229.434ZM523.561 235H522.477V232.293H519.564V235H518.475V228.66H519.564V231.408H522.477V228.66H523.561V235ZM530.018 229.539H527.891V235H526.807V229.539H524.721V228.66H530.018V229.539ZM535.918 228.66V235H534.828V232.533H533.193L531.699 235H530.527L532.121 232.369C531.715 232.221 531.402 231.992 531.184 231.684C530.969 231.371 530.861 231.008 530.861 230.594C530.861 230.016 531.078 229.551 531.512 229.199C531.945 228.844 532.525 228.664 533.252 228.66H535.918ZM531.951 230.605C531.951 230.914 532.057 231.164 532.268 231.355C532.479 231.543 532.758 231.639 533.105 231.643H534.828V229.539H533.27C532.867 229.539 532.547 229.639 532.309 229.838C532.07 230.033 531.951 230.289 531.951 230.605ZM540.441 229.023C541.238 229.023 541.875 229.291 542.352 229.826C542.832 230.357 543.072 231.059 543.072 231.93V232.029C543.072 232.627 542.957 233.162 542.727 233.635C542.496 234.104 542.164 234.469 541.73 234.73C541.301 234.988 540.805 235.117 540.242 235.117C539.391 235.117 538.705 234.834 538.186 234.268C537.666 233.697 537.406 232.934 537.406 231.977V231.449C537.406 230.117 537.652 229.059 538.145 228.273C538.641 227.488 539.371 227.01 540.336 226.838C540.883 226.74 541.252 226.621 541.443 226.48C541.635 226.34 541.73 226.146 541.73 225.9H542.621C542.621 226.389 542.51 226.77 542.287 227.043C542.068 227.316 541.717 227.51 541.232 227.623L540.424 227.805C539.779 227.957 539.295 228.215 538.971 228.578C538.65 228.938 538.441 229.418 538.344 230.02C538.918 229.355 539.617 229.023 540.441 229.023ZM540.23 229.914C539.699 229.914 539.277 230.094 538.965 230.453C538.652 230.809 538.496 231.303 538.496 231.936V232.029C538.496 232.709 538.652 233.248 538.965 233.646C539.281 234.041 539.707 234.238 540.242 234.238C540.781 234.238 541.207 234.039 541.52 233.641C541.832 233.242 541.988 232.66 541.988 231.895C541.988 231.297 541.83 230.818 541.514 230.459C541.201 230.096 540.773 229.914 540.23 229.914ZM549.541 231.9C549.541 232.865 549.32 233.643 548.879 234.232C548.438 234.822 547.84 235.117 547.086 235.117C546.316 235.117 545.711 234.873 545.27 234.385V237.438H544.186V228.66H545.176L545.229 229.363C545.67 228.816 546.283 228.543 547.068 228.543C547.83 228.543 548.432 228.83 548.873 229.404C549.318 229.979 549.541 230.777 549.541 231.801V231.9ZM548.457 231.777C548.457 231.062 548.305 230.498 548 230.084C547.695 229.67 547.277 229.463 546.746 229.463C546.09 229.463 545.598 229.754 545.27 230.336V233.365C545.594 233.943 546.09 234.232 546.758 234.232C547.277 234.232 547.689 234.027 547.994 233.617C548.303 233.203 548.457 232.59 548.457 231.777ZM552.107 230.846H553.754C554.473 230.854 555.041 231.041 555.459 231.408C555.877 231.775 556.086 232.273 556.086 232.902C556.086 233.535 555.871 234.043 555.441 234.426C555.012 234.809 554.434 235 553.707 235H551.023V228.66H552.107V230.846ZM552.107 231.73V234.115H553.719C554.125 234.115 554.439 234.012 554.662 233.805C554.885 233.594 554.996 233.307 554.996 232.943C554.996 232.592 554.887 232.305 554.668 232.082C554.453 231.855 554.15 231.738 553.76 231.73H552.107Z" fill="black"/>
<g clip-path="url(#clip0)">
<path d="M6.39941 217.301H3.54004V216.416H6.39941V217.301ZM12.9385 220.482H7.34863V219.703L10.3018 216.422C10.7393 215.926 11.04 215.523 11.2041 215.215C11.3721 214.902 11.4561 214.58 11.4561 214.248C11.4561 213.803 11.3213 213.438 11.0518 213.152C10.7822 212.867 10.4229 212.725 9.97363 212.725C9.43457 212.725 9.01465 212.879 8.71387 213.188C8.41699 213.492 8.26855 213.918 8.26855 214.465H7.18457C7.18457 213.68 7.43652 213.045 7.94043 212.561C8.44824 212.076 9.12598 211.834 9.97363 211.834C10.7666 211.834 11.3936 212.043 11.8545 212.461C12.3154 212.875 12.5459 213.428 12.5459 214.119C12.5459 214.959 12.0107 215.959 10.9404 217.119L8.65527 219.598H12.9385V220.482ZM19.4365 216.844C19.4365 218.113 19.2197 219.057 18.7861 219.674C18.3525 220.291 17.6748 220.6 16.7529 220.6C15.8428 220.6 15.1689 220.299 14.7314 219.697C14.2939 219.092 14.0674 218.189 14.0518 216.99V215.543C14.0518 214.289 14.2686 213.357 14.7021 212.748C15.1357 212.139 15.8154 211.834 16.7412 211.834C17.6592 211.834 18.335 212.129 18.7686 212.719C19.2021 213.305 19.4248 214.211 19.4365 215.438V216.844ZM18.3525 215.361C18.3525 214.443 18.2236 213.775 17.9658 213.357C17.708 212.936 17.2998 212.725 16.7412 212.725C16.1865 212.725 15.7822 212.934 15.5283 213.352C15.2744 213.77 15.1436 214.412 15.1357 215.279V217.014C15.1357 217.936 15.2686 218.617 15.5342 219.059C15.8037 219.496 16.21 219.715 16.7529 219.715C17.2881 219.715 17.6846 219.508 17.9424 219.094C18.2041 218.68 18.3408 218.027 18.3525 217.137V215.361ZM26.1748 216.844C26.1748 218.113 25.958 219.057 25.5244 219.674C25.0908 220.291 24.4131 220.6 23.4912 220.6C22.5811 220.6 21.9072 220.299 21.4697 219.697C21.0322 219.092 20.8057 218.189 20.79 216.99V215.543C20.79 214.289 21.0068 213.357 21.4404 212.748C21.874 212.139 22.5537 211.834 23.4795 211.834C24.3975 211.834 25.0732 212.129 25.5068 212.719C25.9404 213.305 26.1631 214.211 26.1748 215.438V216.844ZM25.0908 215.361C25.0908 214.443 24.9619 213.775 24.7041 213.357C24.4463 212.936 24.0381 212.725 23.4795 212.725C22.9248 212.725 22.5205 212.934 22.2666 213.352C22.0127 213.77 21.8818 214.412 21.874 215.279V217.014C21.874 217.936 22.0068 218.617 22.2725 219.059C22.542 219.496 22.9482 219.715 23.4912 219.715C24.0264 219.715 24.4229 219.508 24.6807 219.094C24.9424 218.68 25.0791 218.027 25.0908 217.137V215.361Z" fill="black"/>
<path d="M5.89941 177.301H3.04004V176.416H5.89941V177.301ZM10.4111 180.482H9.32129V173.258L7.13574 174.061V173.076L10.2412 171.91H10.4111V180.482ZM18.9365 176.844C18.9365 178.113 18.7197 179.057 18.2861 179.674C17.8525 180.291 17.1748 180.6 16.2529 180.6C15.3428 180.6 14.6689 180.299 14.2314 179.697C13.7939 179.092 13.5674 178.189 13.5518 176.99V175.543C13.5518 174.289 13.7686 173.357 14.2021 172.748C14.6357 172.139 15.3154 171.834 16.2412 171.834C17.1592 171.834 17.835 172.129 18.2686 172.719C18.7021 173.305 18.9248 174.211 18.9365 175.438V176.844ZM17.8525 175.361C17.8525 174.443 17.7236 173.775 17.4658 173.357C17.208 172.936 16.7998 172.725 16.2412 172.725C15.6865 172.725 15.2822 172.934 15.0283 173.352C14.7744 173.77 14.6436 174.412 14.6357 175.279V177.014C14.6357 177.936 14.7686 178.617 15.0342 179.059C15.3037 179.496 15.71 179.715 16.2529 179.715C16.7881 179.715 17.1846 179.508 17.4424 179.094C17.7041 178.68 17.8408 178.027 17.8525 177.137V175.361ZM25.6748 176.844C25.6748 178.113 25.458 179.057 25.0244 179.674C24.5908 180.291 23.9131 180.6 22.9912 180.6C22.0811 180.6 21.4072 180.299 20.9697 179.697C20.5322 179.092 20.3057 178.189 20.29 176.99V175.543C20.29 174.289 20.5068 173.357 20.9404 172.748C21.374 172.139 22.0537 171.834 22.9795 171.834C23.8975 171.834 24.5732 172.129 25.0068 172.719C25.4404 173.305 25.6631 174.211 25.6748 175.438V176.844ZM24.5908 175.361C24.5908 174.443 24.4619 173.775 24.2041 173.357C23.9463 172.936 23.5381 172.725 22.9795 172.725C22.4248 172.725 22.0205 172.934 21.7666 173.352C21.5127 173.77 21.3818 174.412 21.374 175.279V177.014C21.374 177.936 21.5068 178.617 21.7725 179.059C22.042 179.496 22.4482 179.715 22.9912 179.715C23.5264 179.715 23.9229 179.508 24.1807 179.094C24.4424 178.68 24.5791 178.027 24.5908 177.137V175.361Z" fill="black"/>
<path d="M18.2783 136.844C18.2783 138.113 18.0615 139.057 17.6279 139.674C17.1943 140.291 16.5166 140.6 15.5947 140.6C14.6846 140.6 14.0107 140.299 13.5732 139.697C13.1357 139.092 12.9092 138.189 12.8936 136.99V135.543C12.8936 134.289 13.1104 133.357 13.5439 132.748C13.9775 132.139 14.6572 131.834 15.583 131.834C16.501 131.834 17.1768 132.129 17.6104 132.719C18.0439 133.305 18.2666 134.211 18.2783 135.438V136.844ZM17.1943 135.361C17.1943 134.443 17.0654 133.775 16.8076 133.357C16.5498 132.936 16.1416 132.725 15.583 132.725C15.0283 132.725 14.624 132.934 14.3701 133.352C14.1162 133.77 13.9854 134.412 13.9775 135.279V137.014C13.9775 137.936 14.1104 138.617 14.376 139.059C14.6455 139.496 15.0518 139.715 15.5947 139.715C16.1299 139.715 16.5264 139.508 16.7842 139.094C17.0459 138.68 17.1826 138.027 17.1943 137.137V135.361Z" fill="black"/>
<path d="M9.25293 99.4824H8.16309V92.2578L5.97754 93.0605V92.0762L9.08301 90.9102H9.25293V99.4824ZM17.7783 95.8438C17.7783 97.1133 17.5615 98.0566 17.1279 98.6738C16.6943 99.291 16.0166 99.5996 15.0947 99.5996C14.1846 99.5996 13.5107 99.2988 13.0732 98.6973C12.6357 98.0918 12.4092 97.1895 12.3936 95.9902V94.543C12.3936 93.2891 12.6104 92.3574 13.0439 91.748C13.4775 91.1387 14.1572 90.834 15.083 90.834C16.001 90.834 16.6768 91.1289 17.1104 91.7188C17.5439 92.3047 17.7666 93.2109 17.7783 94.4375V95.8438ZM16.6943 94.3613C16.6943 93.4434 16.5654 92.7754 16.3076 92.3574C16.0498 91.9355 15.6416 91.7246 15.083 91.7246C14.5283 91.7246 14.124 91.9336 13.8701 92.3516C13.6162 92.7695 13.4854 93.4121 13.4775 94.2793V96.0137C13.4775 96.9355 13.6104 97.6172 13.876 98.0586C14.1455 98.4961 14.5518 98.7148 15.0947 98.7148C15.6299 98.7148 16.0264 98.5078 16.2842 98.0938C16.5459 97.6797 16.6826 97.0273 16.6943 96.1367V94.3613ZM24.5166 95.8438C24.5166 97.1133 24.2998 98.0566 23.8662 98.6738C23.4326 99.291 22.7549 99.5996 21.833 99.5996C20.9229 99.5996 20.249 99.2988 19.8115 98.6973C19.374 98.0918 19.1475 97.1895 19.1318 95.9902V94.543C19.1318 93.2891 19.3486 92.3574 19.7822 91.748C20.2158 91.1387 20.8955 90.834 21.8213 90.834C22.7393 90.834 23.415 91.1289 23.8486 91.7188C24.2822 92.3047 24.5049 93.2109 24.5166 94.4375V95.8438ZM23.4326 94.3613C23.4326 93.4434 23.3037 92.7754 23.0459 92.3574C22.7881 91.9355 22.3799 91.7246 21.8213 91.7246C21.2666 91.7246 20.8623 91.9336 20.6084 92.3516C20.3545 92.7695 20.2236 93.4121 20.2158 94.2793V96.0137C20.2158 96.9355 20.3486 97.6172 20.6143 98.0586C20.8838 98.4961 21.29 98.7148 21.833 98.7148C22.3682 98.7148 22.7646 98.5078 23.0225 98.0938C23.2842 97.6797 23.4209 97.0273 23.4326 96.1367V94.3613Z" fill="black"/>
<path d="M11.2803 59.4824H5.69043V58.7031L8.64355 55.4219C9.08105 54.9258 9.38184 54.5234 9.5459 54.2148C9.71387 53.9023 9.79785 53.5801 9.79785 53.248C9.79785 52.8027 9.66309 52.4375 9.39355 52.1523C9.12402 51.8672 8.76465 51.7246 8.31543 51.7246C7.77637 51.7246 7.35645 51.8789 7.05566 52.1875C6.75879 52.4922 6.61035 52.918 6.61035 53.4648H5.52637C5.52637 52.6797 5.77832 52.0449 6.28223 51.5605C6.79004 51.0762 7.46777 50.834 8.31543 50.834C9.1084 50.834 9.73535 51.043 10.1963 51.4609C10.6572 51.875 10.8877 52.4277 10.8877 53.1191C10.8877 53.959 10.3525 54.959 9.28223 56.1191L6.99707 58.5977H11.2803V59.4824ZM17.7783 55.8438C17.7783 57.1133 17.5615 58.0566 17.1279 58.6738C16.6943 59.291 16.0166 59.5996 15.0947 59.5996C14.1846 59.5996 13.5107 59.2988 13.0732 58.6973C12.6357 58.0918 12.4092 57.1895 12.3936 55.9902V54.543C12.3936 53.2891 12.6104 52.3574 13.0439 51.748C13.4775 51.1387 14.1572 50.834 15.083 50.834C16.001 50.834 16.6768 51.1289 17.1104 51.7188C17.5439 52.3047 17.7666 53.2109 17.7783 54.4375V55.8438ZM16.6943 54.3613C16.6943 53.4434 16.5654 52.7754 16.3076 52.3574C16.0498 51.9355 15.6416 51.7246 15.083 51.7246C14.5283 51.7246 14.124 51.9336 13.8701 52.3516C13.6162 52.7695 13.4854 53.4121 13.4775 54.2793V56.0137C13.4775 56.9355 13.6104 57.6172 13.876 58.0586C14.1455 58.4961 14.5518 58.7148 15.0947 58.7148C15.6299 58.7148 16.0264 58.5078 16.2842 58.0938C16.5459 57.6797 16.6826 57.0273 16.6943 56.1367V54.3613ZM24.5166 55.8438C24.5166 57.1133 24.2998 58.0566 23.8662 58.6738C23.4326 59.291 22.7549 59.5996 21.833 59.5996C20.9229 59.5996 20.249 59.2988 19.8115 58.6973C19.374 58.0918 19.1475 57.1895 19.1318 55.9902V54.543C19.1318 53.2891 19.3486 52.3574 19.7822 51.748C20.2158 51.1387 20.8955 50.834 21.8213 50.834C22.7393 50.834 23.415 51.1289 23.8486 51.7188C24.2822 52.3047 24.5049 53.2109 24.5166 54.4375V55.8438ZM23.4326 54.3613C23.4326 53.4434 23.3037 52.7754 23.0459 52.3574C22.7881 51.9355 22.3799 51.7246 21.8213 51.7246C21.2666 51.7246 20.8623 51.9336 20.6084 52.3516C20.3545 52.7695 20.2236 53.4121 20.2158 54.2793V56.0137C20.2158 56.9355 20.3486 57.6172 20.6143 58.0586C20.8838 58.4961 21.29 58.7148 21.833 58.7148C22.3682 58.7148 22.7646 58.5078 23.0225 58.0938C23.2842 57.6797 23.4209 57.0273 23.4326 56.1367V54.3613Z" fill="black"/>
<path d="M7.2666 14.6895H8.08105C8.59277 14.6816 8.99512 14.5469 9.28809 14.2852C9.58105 14.0234 9.72754 13.6699 9.72754 13.2246C9.72754 12.2246 9.22949 11.7246 8.2334 11.7246C7.76465 11.7246 7.38965 11.8594 7.1084 12.1289C6.83105 12.3945 6.69238 12.748 6.69238 13.1895H5.6084C5.6084 12.5137 5.85449 11.9531 6.34668 11.5078C6.84277 11.0586 7.47168 10.834 8.2334 10.834C9.03809 10.834 9.66895 11.0469 10.126 11.4727C10.583 11.8984 10.8115 12.4902 10.8115 13.248C10.8115 13.6191 10.6904 13.9785 10.4482 14.3262C10.21 14.6738 9.88379 14.9336 9.46973 15.1055C9.93848 15.2539 10.2998 15.5 10.5537 15.8438C10.8115 16.1875 10.9404 16.6074 10.9404 17.1035C10.9404 17.8691 10.6904 18.4766 10.1904 18.9258C9.69043 19.375 9.04004 19.5996 8.23926 19.5996C7.43848 19.5996 6.78613 19.3828 6.28223 18.9492C5.78223 18.5156 5.53223 17.9434 5.53223 17.2324H6.62207C6.62207 17.6816 6.76855 18.041 7.06152 18.3105C7.35449 18.5801 7.74707 18.7148 8.23926 18.7148C8.7627 18.7148 9.16309 18.5781 9.44043 18.3047C9.71777 18.0312 9.85645 17.6387 9.85645 17.127C9.85645 16.6309 9.7041 16.25 9.39941 15.9844C9.09473 15.7188 8.65527 15.582 8.08105 15.5742H7.2666V14.6895ZM17.7783 15.8438C17.7783 17.1133 17.5615 18.0566 17.1279 18.6738C16.6943 19.291 16.0166 19.5996 15.0947 19.5996C14.1846 19.5996 13.5107 19.2988 13.0732 18.6973C12.6357 18.0918 12.4092 17.1895 12.3936 15.9902V14.543C12.3936 13.2891 12.6104 12.3574 13.0439 11.748C13.4775 11.1387 14.1572 10.834 15.083 10.834C16.001 10.834 16.6768 11.1289 17.1104 11.7188C17.5439 12.3047 17.7666 13.2109 17.7783 14.4375V15.8438ZM16.6943 14.3613C16.6943 13.4434 16.5654 12.7754 16.3076 12.3574C16.0498 11.9355 15.6416 11.7246 15.083 11.7246C14.5283 11.7246 14.124 11.9336 13.8701 12.3516C13.6162 12.7695 13.4854 13.4121 13.4775 14.2793V16.0137C13.4775 16.9355 13.6104 17.6172 13.876 18.0586C14.1455 18.4961 14.5518 18.7148 15.0947 18.7148C15.6299 18.7148 16.0264 18.5078 16.2842 18.0938C16.5459 17.6797 16.6826 17.0273 16.6943 16.1367V14.3613ZM24.5166 15.8438C24.5166 17.1133 24.2998 18.0566 23.8662 18.6738C23.4326 19.291 22.7549 19.5996 21.833 19.5996C20.9229 19.5996 20.249 19.2988 19.8115 18.6973C19.374 18.0918 19.1475 17.1895 19.1318 15.9902V14.543C19.1318 13.2891 19.3486 12.3574 19.7822 11.748C20.2158 11.1387 20.8955 10.834 21.8213 10.834C22.7393 10.834 23.415 11.1289 23.8486 11.7188C24.2822 12.3047 24.5049 13.2109 24.5166 14.4375V15.8438ZM23.4326 14.3613C23.4326 13.4434 23.3037 12.7754 23.0459 12.3574C22.7881 11.9355 22.3799 11.7246 21.8213 11.7246C21.2666 11.7246 20.8623 11.9336 20.6084 12.3516C20.3545 12.7695 20.2236 13.4121 20.2158 14.2793V16.0137C20.2158 16.9355 20.3486 17.6172 20.6143 18.0586C20.8838 18.4961 21.29 18.7148 21.833 18.7148C22.3682 18.7148 22.7646 18.5078 23.0225 18.0938C23.2842 17.6797 23.4209 17.0273 23.4326 16.1367V14.3613Z" fill="black"/>
</g>
<path d="M79 195.429C79 197.638 80.7909 199.429 83 199.429C85.2091 199.429 87 197.638 87 195.429V137.057H79V195.429Z" fill="#CCD2D5"/>
<path d="M135 167.943C135 170.153 136.791 171.943 139 171.943C141.209 171.943 143 170.152 143 167.943V137.058H135V167.943Z" fill="#CCD2D5"/>
<path d="M191 157.371C191 159.58 192.791 161.371 195 161.371C197.209 161.371 199 159.58 199 157.371V137.057H191V157.371Z" fill="#CCD2D5"/>
<path d="M247 206C247 208.209 248.791 210 251 210C253.209 210 255 208.209 255 206V136H247V206Z" fill="#CCD2D5"/>
<path d="M66 273C63.7909 273 62 274.791 62 277C62 279.209 63.7909 281 66 281L553 281C555.209 281 557 279.209 557 277C557 274.791 555.209 273 553 273L66 273Z" fill="#CCD2D5" fill-opacity="0.5"/>
<path d="M473 273C470.791 273 469 274.791 469 277C469 279.209 470.791 281 473 281L553 281C555.209 281 557 279.209 557 277C557 274.791 555.209 273 553 273L473 273Z" fill="#CCD2D5"/>
<path d="M303 177.457C303 179.666 304.791 181.457 307 181.457C309.209 181.457 311 179.666 311 177.457V137.057H303V177.457Z" fill="#CCD2D5"/>
<path d="M359 157.371C359 159.58 360.791 161.371 363 161.371C365.209 161.371 367 159.58 367 157.371V137.057H359V157.371Z" fill="#CCD2D5"/>
<path d="M415 171.114C415 173.323 416.791 175.114 419 175.114C421.209 175.114 423 173.323 423 171.114V136H415V171.114Z" fill="#CCD2D5"/>
<path d="M471 164.771C471 166.981 472.791 168.771 475 168.771C477.209 168.771 479 166.981 479 164.771V136H471V164.771Z" fill="#CCD2D5"/>
<path d="M527 177.457C527 179.666 528.791 181.457 531 181.457C533.209 181.457 535 179.666 535 177.457V136H527V177.457Z" fill="#CCD2D5"/>
<path d="M79 88.8945C79 86.6854 80.7909 84.8945 83 84.8945C85.2091 84.8945 87 86.6854 87 88.8945V125.947H79V88.8945Z" fill="#538697"/>
<path d="M135 53.1055C135 50.8963 136.791 49.1055 139 49.1055C141.209 49.1055 143 50.8963 143 53.1055V127H135V53.1055Z" fill="#538697"/>
<path d="M191 11C191 8.79086 192.791 7 195 7C197.209 7 199 8.79086 199 11V123.842H191V11Z" fill="#538697"/>
<path d="M247 23.6318C247 21.4227 248.791 19.6318 251 19.6318C253.209 19.6318 255 21.4227 255 23.6318V124.895H247V23.6318Z" fill="#538697"/>
<path d="M303 84.6836C303 82.4745 304.791 80.6836 307 80.6836C309.209 80.6836 311 82.4745 311 84.6836V126.999H303V84.6836Z" fill="#538697"/>
<path d="M359 103.632C359 101.423 360.791 99.6318 363 99.6318C365.209 99.6318 367 101.423 367 103.632V124.895H359V103.632Z" fill="#538697"/>
<path d="M415 55.2109C415 53.0018 416.791 51.2109 419 51.2109C421.209 51.2109 423 53.0018 423 55.2109V127H415V55.2109Z" fill="#538697"/>
<path d="M471 32.0527C471 29.8436 472.791 28.0527 475 28.0527C477.209 28.0527 479 29.8436 479 32.0527V124.895H471V32.0527Z" fill="#538697"/>
<path d="M527 95.2109C527 93.0018 528.791 91.2109 531 91.2109C533.209 91.2109 535 93.0018 535 95.2109V123.843H527V95.2109Z" fill="#538697"/>
<defs>
<clipPath id="clip0">
<rect width="533.76" height="261.195" fill="white" transform="translate(0.588867 0.482422)"/>
</clipPath>
</defs>
</svg>
