<svg width="169" height="166" viewBox="0 0 169 166" fill="none" xmlns="http://www.w3.org/2000/svg">
<path opacity="0.2" d="M90.7572 157.842C129.479 157.842 160.854 126.417 160.854 87.6732C160.854 48.929 129.479 17.5049 90.7572 17.5049C52.035 17.5049 20.6602 48.929 20.6602 87.6732C20.6602 126.417 52.035 157.842 90.7572 157.842Z" stroke="#C6CACC" stroke-width="16"/>
<path opacity="0.4" d="M79.0228 156.855C89.35 158.61 99.9393 158.025 110.012 155.144C120.085 152.262 129.384 147.158 137.227 140.205C145.069 133.252 151.255 124.628 155.33 114.967C159.405 105.307 161.266 94.8552 160.775 84.3811C160.284 73.907 157.455 63.6764 152.495 54.4415C147.536 45.2065 140.572 37.2015 132.115 31.0153C123.658 24.829 113.923 20.6185 103.626 18.6939C93.3295 16.7693 82.7321 17.1796 72.6136 19.8948" stroke="#EA5455" stroke-width="16"/>
<path d="M73.2409 19.7265C63.2643 22.3041 53.9781 27.0521 46.0435 33.6322C38.109 40.2123 31.721 48.4628 27.3344 57.7963C22.9479 67.1298 20.6706 77.3168 20.6648 87.6321C20.659 97.9475 22.9249 108.137 27.3012 117.476" stroke="#538697" stroke-width="16"/>
<path d="M76.6172 70.168H78.3516C79.2266 70.1602 79.918 69.9336 80.4258 69.4883C80.9414 69.043 81.1992 68.3984 81.1992 67.5547C81.1992 66.7422 80.9844 66.1133 80.5547 65.668C80.1328 65.2148 79.4844 64.9883 78.6094 64.9883C77.8438 64.9883 77.2148 65.2109 76.7227 65.6562C76.2305 66.0938 75.9844 66.668 75.9844 67.3789H73.1367C73.1367 66.5039 73.3672 65.707 73.8281 64.9883C74.2969 64.2695 74.9453 63.7109 75.7734 63.3125C76.6094 62.9062 77.543 62.7031 78.5742 62.7031C80.2773 62.7031 81.6133 63.1328 82.582 63.9922C83.5586 64.8438 84.0469 66.0312 84.0469 67.5547C84.0469 68.3203 83.8008 69.043 83.3086 69.7227C82.8242 70.3945 82.1953 70.9023 81.4219 71.2461C82.3594 71.5664 83.0703 72.0703 83.5547 72.7578C84.0469 73.4453 84.293 74.2656 84.293 75.2188C84.293 76.75 83.7656 77.9688 82.7109 78.875C81.6641 79.7812 80.2852 80.2344 78.5742 80.2344C76.9336 80.2344 75.5898 79.7969 74.543 78.9219C73.4961 78.0469 72.9727 76.8828 72.9727 75.4297H75.8203C75.8203 76.1797 76.0703 76.7891 76.5703 77.2578C77.0781 77.7266 77.7578 77.9609 78.6094 77.9609C79.4922 77.9609 80.1875 77.7266 80.6953 77.2578C81.2031 76.7891 81.457 76.1094 81.457 75.2188C81.457 74.3203 81.1914 73.6289 80.6602 73.1445C80.1289 72.6602 79.3398 72.418 78.293 72.418H76.6172V70.168ZM97.7109 67.4375C97.7109 68.2734 97.4961 69.0195 97.0664 69.6758C96.6367 70.3242 96.0508 70.8359 95.3086 71.2109C96.1992 71.625 96.8828 72.1914 97.3594 72.9102C97.8438 73.6289 98.0859 74.4414 98.0859 75.3477C98.0859 76.8477 97.5781 78.0391 96.5625 78.9219C95.5469 79.7969 94.1953 80.2344 92.5078 80.2344C90.8125 80.2344 89.4531 79.793 88.4297 78.9102C87.4141 78.0273 86.9062 76.8398 86.9062 75.3477C86.9062 74.4336 87.1484 73.6133 87.6328 72.8867C88.1172 72.1602 88.7969 71.6016 89.6719 71.2109C88.9375 70.8359 88.3555 70.3242 87.9258 69.6758C87.5039 69.0195 87.293 68.2734 87.293 67.4375C87.293 65.9844 87.7617 64.832 88.6992 63.9805C89.6367 63.1289 90.9023 62.7031 92.4961 62.7031C94.0977 62.7031 95.3672 63.1289 96.3047 63.9805C97.2422 64.832 97.7109 65.9844 97.7109 67.4375ZM95.2383 75.207C95.2383 74.3633 94.9844 73.6836 94.4766 73.168C93.9766 72.6445 93.3125 72.3828 92.4844 72.3828C91.6562 72.3828 90.9922 72.6406 90.4922 73.1562C90 73.6719 89.7539 74.3555 89.7539 75.207C89.7539 76.043 89.9961 76.7109 90.4805 77.2109C90.9727 77.7109 91.6484 77.9609 92.5078 77.9609C93.3672 77.9609 94.0352 77.7188 94.5117 77.2344C94.9961 76.75 95.2383 76.0742 95.2383 75.207ZM94.875 67.543C94.875 66.8008 94.6602 66.1914 94.2305 65.7148C93.8008 65.2305 93.2227 64.9883 92.4961 64.9883C91.7695 64.9883 91.1953 65.2188 90.7734 65.6797C90.3516 66.1328 90.1406 66.7539 90.1406 67.543C90.1406 68.3242 90.3516 68.9453 90.7734 69.4062C91.2031 69.8672 91.7812 70.0977 92.5078 70.0977C93.2344 70.0977 93.8086 69.8672 94.2305 69.4062C94.6602 68.9453 94.875 68.3242 94.875 67.543ZM100.488 66.2188C100.488 65.1875 100.82 64.3438 101.484 63.6875C102.148 63.0234 103.02 62.6914 104.098 62.6914C105.191 62.6914 106.066 63.0234 106.723 63.6875C107.387 64.3438 107.719 65.207 107.719 66.2773V67.1211C107.719 68.1445 107.387 68.9844 106.723 69.6406C106.066 70.2969 105.199 70.625 104.121 70.625C103.066 70.625 102.195 70.3047 101.508 69.6641C100.828 69.0156 100.488 68.1445 100.488 67.0508V66.2188ZM102.48 67.1211C102.48 67.6602 102.629 68.0977 102.926 68.4336C103.23 68.7617 103.629 68.9258 104.121 68.9258C104.605 68.9258 104.996 68.7617 105.293 68.4336C105.59 68.0977 105.738 67.6445 105.738 67.0742V66.2188C105.738 65.6797 105.586 65.2422 105.281 64.9062C104.984 64.5703 104.59 64.4023 104.098 64.4023C103.605 64.4023 103.211 64.5742 102.914 64.918C102.625 65.2539 102.48 65.6992 102.48 66.2539V67.1211ZM108.691 75.8164C108.691 74.7695 109.031 73.9219 109.711 73.2734C110.391 72.625 111.258 72.3008 112.312 72.3008C113.375 72.3008 114.242 72.625 114.914 73.2734C115.594 73.9219 115.934 74.7969 115.934 75.8984V76.7305C115.934 77.7461 115.605 78.5859 114.949 79.25C114.301 79.9062 113.43 80.2344 112.336 80.2344C111.242 80.2344 110.359 79.9102 109.688 79.2617C109.023 78.6055 108.691 77.7422 108.691 76.6719V75.8164ZM110.684 76.7305C110.684 77.2617 110.836 77.6992 111.141 78.043C111.453 78.3789 111.852 78.5469 112.336 78.5469C112.836 78.5469 113.227 78.3867 113.508 78.0664C113.797 77.7383 113.941 77.2812 113.941 76.6953V75.8164C113.941 75.2695 113.789 74.832 113.484 74.5039C113.18 74.1758 112.789 74.0117 112.312 74.0117C111.828 74.0117 111.434 74.1758 111.129 74.5039C110.832 74.832 110.684 75.2852 110.684 75.8633V76.7305ZM104.707 78.7227L103.242 77.8789L111.574 64.543L113.039 65.3867L104.707 78.7227Z" fill="black"/>
<path d="M59.7578 100V91.4688H62.5469C63.4727 91.4688 64.168 91.6602 64.6328 92.043C65.1016 92.4258 65.3359 92.9922 65.3359 93.7422C65.3359 94.1406 65.2227 94.4941 64.9961 94.8027C64.7695 95.1074 64.4609 95.3438 64.0703 95.5117C64.5312 95.6406 64.8945 95.8867 65.1602 96.25C65.4297 96.6094 65.5645 97.0391 65.5645 97.5391C65.5645 98.3047 65.3164 98.9062 64.8203 99.3438C64.3242 99.7812 63.623 100 62.7168 100H59.7578ZM60.8828 96.0098V99.0801H62.7402C63.2637 99.0801 63.6758 98.9453 63.9766 98.6758C64.2812 98.4023 64.4336 98.0273 64.4336 97.5508C64.4336 96.5234 63.875 96.0098 62.7578 96.0098H60.8828ZM60.8828 95.1074H62.582C63.0742 95.1074 63.4668 94.9844 63.7598 94.7383C64.0566 94.4922 64.2051 94.1582 64.2051 93.7363C64.2051 93.2676 64.0684 92.9277 63.7949 92.7168C63.5215 92.502 63.1055 92.3945 62.5469 92.3945H60.8828V95.1074ZM68.248 95.8457H69.8945C70.6133 95.8535 71.1816 96.041 71.5996 96.4082C72.0176 96.7754 72.2266 97.2734 72.2266 97.9023C72.2266 98.5352 72.0117 99.043 71.582 99.4258C71.1523 99.8086 70.5742 100 69.8477 100H67.1641V93.6602H68.248V95.8457ZM74.4883 100H73.3984V93.6602H74.4883V100ZM68.248 96.7305V99.1152H69.8594C70.2656 99.1152 70.5801 99.0117 70.8027 98.8047C71.0254 98.5938 71.1367 98.3066 71.1367 97.9434C71.1367 97.5918 71.0273 97.3047 70.8086 97.082C70.5938 96.8555 70.291 96.7383 69.9004 96.7305H68.248ZM81.5664 100H80.4824V94.5566H77.5645V100H76.4746V93.6602H81.5664V100ZM83.0195 96.7715C83.0195 96.1504 83.1406 95.5918 83.3828 95.0957C83.6289 94.5996 83.9688 94.2168 84.4023 93.9473C84.8398 93.6777 85.3379 93.543 85.8965 93.543C86.7598 93.543 87.457 93.8418 87.9883 94.4395C88.5234 95.0371 88.791 95.832 88.791 96.8242V96.9004C88.791 97.5176 88.6719 98.0723 88.4336 98.5645C88.1992 99.0527 87.8613 99.4336 87.4199 99.707C86.9824 99.9805 86.4785 100.117 85.9082 100.117C85.0488 100.117 84.3516 99.8184 83.8164 99.2207C83.2852 98.623 83.0195 97.832 83.0195 96.8477V96.7715ZM84.1094 96.9004C84.1094 97.6035 84.2715 98.168 84.5957 98.5938C84.9238 99.0195 85.3613 99.2324 85.9082 99.2324C86.459 99.2324 86.8965 99.0176 87.2207 98.5879C87.5449 98.1543 87.707 97.5488 87.707 96.7715C87.707 96.0762 87.541 95.5137 87.209 95.084C86.8809 94.6504 86.4434 94.4336 85.8965 94.4336C85.3613 94.4336 84.9297 94.6465 84.6016 95.0723C84.2734 95.498 84.1094 96.1074 84.1094 96.9004ZM95.2539 93.6602V100H94.1641V94.5566H92.0078L91.8789 96.9297C91.8086 98.0195 91.625 98.7988 91.3281 99.2676C91.0352 99.7363 90.5684 99.9805 89.9277 100H89.4941V99.0449L89.8047 99.0215C90.1562 98.9824 90.4082 98.7793 90.5605 98.4121C90.7129 98.0449 90.8105 97.3652 90.8535 96.373L90.9707 93.6602H95.2539ZM102.174 100H101.09V97.293H98.1777V100H97.0879V93.6602H98.1777V96.4082H101.09V93.6602H102.174V100ZM106.551 100.117C105.691 100.117 104.992 99.8359 104.453 99.2734C103.914 98.707 103.645 97.9512 103.645 97.0059V96.8066C103.645 96.1777 103.764 95.6172 104.002 95.125C104.244 94.6289 104.58 94.2422 105.01 93.9648C105.443 93.6836 105.912 93.543 106.416 93.543C107.24 93.543 107.881 93.8145 108.338 94.3574C108.795 94.9004 109.023 95.6777 109.023 96.6895V97.1406H104.729C104.744 97.7656 104.926 98.2715 105.273 98.6582C105.625 99.041 106.07 99.2324 106.609 99.2324C106.992 99.2324 107.316 99.1543 107.582 98.998C107.848 98.8418 108.08 98.6348 108.279 98.377L108.941 98.8926C108.41 99.709 107.613 100.117 106.551 100.117ZM106.416 94.4336C105.979 94.4336 105.611 94.5938 105.314 94.9141C105.018 95.2305 104.834 95.6758 104.764 96.25H107.939V96.168C107.908 95.6172 107.76 95.1914 107.494 94.8906C107.229 94.5859 106.869 94.4336 106.416 94.4336ZM115.463 100H114.379V97.293H111.467V100H110.377V93.6602H111.467V96.4082H114.379V93.6602H115.463V100ZM116.922 96.7715C116.922 96.1504 117.043 95.5918 117.285 95.0957C117.531 94.5996 117.871 94.2168 118.305 93.9473C118.742 93.6777 119.24 93.543 119.799 93.543C120.662 93.543 121.359 93.8418 121.891 94.4395C122.426 95.0371 122.693 95.832 122.693 96.8242V96.9004C122.693 97.5176 122.574 98.0723 122.336 98.5645C122.102 99.0527 121.764 99.4336 121.322 99.707C120.885 99.9805 120.381 100.117 119.811 100.117C118.951 100.117 118.254 99.8184 117.719 99.2207C117.188 98.623 116.922 97.832 116.922 96.8477V96.7715ZM118.012 96.9004C118.012 97.6035 118.174 98.168 118.498 98.5938C118.826 99.0195 119.264 99.2324 119.811 99.2324C120.361 99.2324 120.799 99.0176 121.123 98.5879C121.447 98.1543 121.609 97.5488 121.609 96.7715C121.609 96.0762 121.443 95.5137 121.111 95.084C120.783 94.6504 120.346 94.4336 119.799 94.4336C119.264 94.4336 118.832 94.6465 118.504 95.0723C118.176 95.498 118.012 96.1074 118.012 96.9004ZM75.4844 118H74.4004V112.557H71.4824V118H70.3926V111.66H75.4844V118ZM82.5801 114.9C82.5801 115.865 82.3594 116.643 81.918 117.232C81.4766 117.822 80.8789 118.117 80.125 118.117C79.3555 118.117 78.75 117.873 78.3086 117.385V120.438H77.2246V111.66H78.2148L78.2676 112.363C78.709 111.816 79.3223 111.543 80.1074 111.543C80.8691 111.543 81.4707 111.83 81.9121 112.404C82.3574 112.979 82.5801 113.777 82.5801 114.801V114.9ZM81.4961 114.777C81.4961 114.062 81.3438 113.498 81.0391 113.084C80.7344 112.67 80.3164 112.463 79.7852 112.463C79.1289 112.463 78.6367 112.754 78.3086 113.336V116.365C78.6328 116.943 79.1289 117.232 79.7969 117.232C80.3164 117.232 80.7285 117.027 81.0332 116.617C81.3418 116.203 81.4961 115.59 81.4961 114.777ZM83.6758 114.771C83.6758 114.15 83.7969 113.592 84.0391 113.096C84.2852 112.6 84.625 112.217 85.0586 111.947C85.4961 111.678 85.9941 111.543 86.5527 111.543C87.416 111.543 88.1133 111.842 88.6445 112.439C89.1797 113.037 89.4473 113.832 89.4473 114.824V114.9C89.4473 115.518 89.3281 116.072 89.0898 116.564C88.8555 117.053 88.5176 117.434 88.0762 117.707C87.6387 117.98 87.1348 118.117 86.5645 118.117C85.7051 118.117 85.0078 117.818 84.4727 117.221C83.9414 116.623 83.6758 115.832 83.6758 114.848V114.771ZM84.7656 114.9C84.7656 115.604 84.9277 116.168 85.252 116.594C85.5801 117.02 86.0176 117.232 86.5645 117.232C87.1152 117.232 87.5527 117.018 87.877 116.588C88.2012 116.154 88.3633 115.549 88.3633 114.771C88.3633 114.076 88.1973 113.514 87.8652 113.084C87.5371 112.65 87.0996 112.434 86.5527 112.434C86.0176 112.434 85.5859 112.646 85.2578 113.072C84.9297 113.498 84.7656 114.107 84.7656 114.9ZM90.332 117.115L90.707 116.652C91.1289 116.105 91.3691 115.285 91.4277 114.191L91.5273 111.66H95.6113V117.115H96.4258V119.863H95.3418V118H90.918V119.863H89.834L89.8398 117.115H90.332ZM91.6152 117.115H94.5273V112.662H92.5762L92.5117 114.174C92.4453 115.436 92.1465 116.416 91.6152 117.115ZM101.541 118C101.479 117.875 101.428 117.652 101.389 117.332C100.885 117.855 100.283 118.117 99.584 118.117C98.959 118.117 98.4453 117.941 98.043 117.59C97.6445 117.234 97.4453 116.785 97.4453 116.242C97.4453 115.582 97.6953 115.07 98.1953 114.707C98.6992 114.34 99.4062 114.156 100.316 114.156H101.371V113.658C101.371 113.279 101.258 112.979 101.031 112.756C100.805 112.529 100.471 112.416 100.029 112.416C99.6426 112.416 99.3184 112.514 99.0566 112.709C98.7949 112.904 98.6641 113.141 98.6641 113.418H97.5742C97.5742 113.102 97.6855 112.797 97.9082 112.504C98.1348 112.207 98.4395 111.973 98.8223 111.801C99.209 111.629 99.6328 111.543 100.094 111.543C100.824 111.543 101.396 111.727 101.811 112.094C102.225 112.457 102.439 112.959 102.455 113.6V116.518C102.455 117.1 102.529 117.562 102.678 117.906V118H101.541ZM99.7422 117.174C100.082 117.174 100.404 117.086 100.709 116.91C101.014 116.734 101.234 116.506 101.371 116.225V114.924H100.521C99.1934 114.924 98.5293 115.312 98.5293 116.09C98.5293 116.43 98.6426 116.695 98.8691 116.887C99.0957 117.078 99.3867 117.174 99.7422 117.174ZM109.211 115.246H108.449V118H107.365V115.246H106.604L104.828 118H103.457L105.725 114.719L103.674 111.66H104.986L106.621 114.285H107.365V111.66H108.449V114.285H109.188L110.834 111.66H112.146L110.09 114.725L112.357 118H110.986L109.211 115.246Z" fill="black"/>
</svg>
