<svg width="47" height="29" viewBox="0 0 47 29" fill="none" xmlns="http://www.w3.org/2000/svg">
<g clip-path="url(#clip0)">
<path d="M8.09034 29H11.8869C14.0795 25.3246 15.6834 20.8639 13.5517 17.2791C12.2625 15.1142 10.0089 13.9462 7.59293 12.9392C3.28883 13.2212 -0.0610662 16.7857 -0.000159085 21.0854C0.0708992 25.4757 3.66442 29 8.09034 29Z" fill="#538697"/>
<path d="M29.1135 29C27.5705 27.1573 26.3118 25.0931 25.4083 22.8677C23.3578 17.7726 22.6878 11.4288 17.998 8.52883C15.1252 6.75661 11.2373 6.67605 8.43556 5.05487C7.15651 7.39098 6.86213 10.2406 7.8468 12.9393C7.75544 12.9393 7.67423 12.9493 7.59302 12.9493C10.009 13.9563 12.2626 15.1243 13.5518 17.2893C15.6835 20.874 14.0898 25.3247 11.887 29.0101H29.1135V29Z" fill="#C2D9CF"/>
<path d="M46.3604 23.4618C44.6144 23.2705 42.8988 22.8274 41.2848 22.1125C35.4986 19.5548 31.5701 14.1778 27.9258 9.03227C27.3168 8.16629 26.6874 7.26005 26.2204 6.31352C26.19 6.32359 26.1595 6.34373 26.1189 6.35379C24.2917 1.34928 18.7086 -1.23857 13.6634 0.584003C11.3388 1.41977 9.52172 3.05102 8.43555 5.05484C11.2373 6.67602 15.1353 6.75657 17.998 8.52879C22.698 11.4389 23.3578 17.7725 25.4083 22.8677C26.3016 25.093 27.5705 27.1573 29.1135 29H38.077C41.833 29 45.0407 26.7041 46.3604 23.4618Z" fill="#E9F0ED"/>
<path d="M38.0874 11.3181C37.4987 11.3181 36.8998 11.3785 36.3211 11.4892C35.8846 9.32431 34.4635 7.47153 32.4738 6.46459C30.5147 5.47778 28.2205 5.42743 26.2207 6.31355C26.6877 7.27014 27.317 8.17639 27.9261 9.03229C31.5704 14.1778 35.4989 19.5549 41.2851 22.1125C42.8991 22.8274 44.6147 23.2705 46.3607 23.4618C46.7769 22.4448 47.0002 21.3271 47.0002 20.159C47.0002 15.2754 43.0108 11.3181 38.0874 11.3181Z" fill="#FF842A"/>
</g>
<defs>
<clipPath id="clip0">
<rect width="47" height="29" fill="white"/>
</clipPath>
</defs>
</svg>
